<svg id="visual" viewBox="0 0 960 540" width="960" height="540" xmlns="http://www.w3.org/2000/svg" xmlns:xlink="http://www.w3.org/1999/xlink" version="1.1"><rect x="0" y="0" width="960" height="540" fill="#001220"></rect><defs><linearGradient id="grad1_0" x1="43.8%" y1="0%" x2="100%" y2="100%"><stop offset="14.444444444444446%" stop-color="#715df2" stop-opacity="1"></stop><stop offset="85.55555555555554%" stop-color="#715df2" stop-opacity="1"></stop></linearGradient></defs><defs><linearGradient id="grad1_1" x1="43.8%" y1="0%" x2="100%" y2="100%"><stop offset="14.444444444444446%" stop-color="#715df2" stop-opacity="1"></stop><stop offset="85.55555555555554%" stop-color="#4757d6" stop-opacity="1"></stop></linearGradient></defs><defs><linearGradient id="grad1_2" x1="43.8%" y1="0%" x2="100%" y2="100%"><stop offset="14.444444444444446%" stop-color="#194fb8" stop-opacity="1"></stop><stop offset="85.55555555555554%" stop-color="#4757d6" stop-opacity="1"></stop></linearGradient></defs><defs><linearGradient id="grad1_3" x1="43.8%" y1="0%" x2="100%" y2="100%"><stop offset="14.444444444444446%" stop-color="#194fb8" stop-opacity="1"></stop><stop offset="85.55555555555554%" stop-color="#004599" stop-opacity="1"></stop></linearGradient></defs><defs><linearGradient id="grad1_4" x1="43.8%" y1="0%" x2="100%" y2="100%"><stop offset="14.444444444444446%" stop-color="#00397a" stop-opacity="1"></stop><stop offset="85.55555555555554%" stop-color="#004599" stop-opacity="1"></stop></linearGradient></defs><defs><linearGradient id="grad1_5" x1="43.8%" y1="0%" x2="100%" y2="100%"><stop offset="14.444444444444446%" stop-color="#00397a" stop-opacity="1"></stop><stop offset="85.55555555555554%" stop-color="#002d5a" stop-opacity="1"></stop></linearGradient></defs><defs><linearGradient id="grad1_6" x1="43.8%" y1="0%" x2="100%" y2="100%"><stop offset="14.444444444444446%" stop-color="#00203c" stop-opacity="1"></stop><stop offset="85.55555555555554%" stop-color="#002d5a" stop-opacity="1"></stop></linearGradient></defs><defs><linearGradient id="grad1_7" x1="43.8%" y1="0%" x2="100%" y2="100%"><stop offset="14.444444444444446%" stop-color="#00203c" stop-opacity="1"></stop><stop offset="85.55555555555554%" stop-color="#001220" stop-opacity="1"></stop></linearGradient></defs><defs><linearGradient id="grad2_0" x1="0%" y1="0%" x2="56.3%" y2="100%"><stop offset="14.444444444444446%" stop-color="#715df2" stop-opacity="1"></stop><stop offset="85.55555555555554%" stop-color="#715df2" stop-opacity="1"></stop></linearGradient></defs><defs><linearGradient id="grad2_1" x1="0%" y1="0%" x2="56.3%" y2="100%"><stop offset="14.444444444444446%" stop-color="#4757d6" stop-opacity="1"></stop><stop offset="85.55555555555554%" stop-color="#715df2" stop-opacity="1"></stop></linearGradient></defs><defs><linearGradient id="grad2_2" x1="0%" y1="0%" x2="56.3%" y2="100%"><stop offset="14.444444444444446%" stop-color="#4757d6" stop-opacity="1"></stop><stop offset="85.55555555555554%" stop-color="#194fb8" stop-opacity="1"></stop></linearGradient></defs><defs><linearGradient id="grad2_3" x1="0%" y1="0%" x2="56.3%" y2="100%"><stop offset="14.444444444444446%" stop-color="#004599" stop-opacity="1"></stop><stop offset="85.55555555555554%" stop-color="#194fb8" stop-opacity="1"></stop></linearGradient></defs><defs><linearGradient id="grad2_4" x1="0%" y1="0%" x2="56.3%" y2="100%"><stop offset="14.444444444444446%" stop-color="#004599" stop-opacity="1"></stop><stop offset="85.55555555555554%" stop-color="#00397a" stop-opacity="1"></stop></linearGradient></defs><defs><linearGradient id="grad2_5" x1="0%" y1="0%" x2="56.3%" y2="100%"><stop offset="14.444444444444446%" stop-color="#002d5a" stop-opacity="1"></stop><stop offset="85.55555555555554%" stop-color="#00397a" stop-opacity="1"></stop></linearGradient></defs><defs><linearGradient id="grad2_6" x1="0%" y1="0%" x2="56.3%" y2="100%"><stop offset="14.444444444444446%" stop-color="#002d5a" stop-opacity="1"></stop><stop offset="85.55555555555554%" stop-color="#00203c" stop-opacity="1"></stop></linearGradient></defs><defs><linearGradient id="grad2_7" x1="0%" y1="0%" x2="56.3%" y2="100%"><stop offset="14.444444444444446%" stop-color="#001220" stop-opacity="1"></stop><stop offset="85.55555555555554%" stop-color="#00203c" stop-opacity="1"></stop></linearGradient></defs><g transform="translate(960, 0)"><path d="M0 378C-37.7 371.3 -75.3 364.6 -115.6 355.7C-155.8 346.8 -198.6 335.7 -222.2 305.8C-245.8 275.9 -250.2 227.1 -263.7 191.6C-277.3 156.1 -299.9 133.9 -320.5 104.1C-341.1 74.4 -359.5 37.2 -378 0L0 0Z" fill="#00192e"></path><path d="M0 330.8C-33 324.9 -65.9 319 -101.1 311.2C-136.3 303.5 -173.8 293.8 -194.4 267.6C-215.1 241.4 -218.9 198.7 -230.8 167.7C-242.6 136.6 -262.4 117.1 -280.4 91.1C-298.4 65.1 -314.6 32.6 -330.7 0L0 0Z" fill="#00264b"></path><path d="M0 283.5C-28.3 278.5 -56.5 273.4 -86.7 266.8C-116.8 260.1 -148.9 251.8 -166.6 229.4C-184.3 206.9 -187.6 170.3 -197.8 143.7C-208 117.1 -225 100.4 -240.4 78.1C-255.8 55.8 -269.7 27.9 -283.5 0L0 0Z" fill="#00336a"></path><path d="M0 236.3C-23.5 232.1 -47.1 227.9 -72.2 222.3C-97.4 216.8 -124.1 209.8 -138.9 191.1C-153.6 172.4 -156.4 142 -164.8 119.8C-173.3 97.6 -187.5 83.7 -200.3 65.1C-213.2 46.5 -224.7 23.3 -236.2 0L0 0Z" fill="#003f8a"></path><path d="M0 189C-18.8 185.6 -37.7 182.3 -57.8 177.8C-77.9 173.4 -99.3 167.9 -111.1 152.9C-122.9 137.9 -125.1 113.6 -131.9 95.8C-138.6 78.1 -150 66.9 -160.3 52.1C-170.5 37.2 -179.8 18.6 -189 0L0 0Z" fill="#004aa9"></path><path d="M0 141.8C-14.1 139.2 -28.3 136.7 -43.3 133.4C-58.4 130.1 -74.5 125.9 -83.3 114.7C-92.2 103.5 -93.8 85.2 -98.9 71.9C-104 58.5 -112.5 50.2 -120.2 39.1C-127.9 27.9 -134.8 14 -141.7 0L0 0Z" fill="#3153c8"></path><path d="M0 94.5C-9.4 92.8 -18.8 91.1 -28.9 88.9C-38.9 86.7 -49.6 83.9 -55.5 76.5C-61.4 69 -62.5 56.8 -65.9 47.9C-69.3 39 -75 33.5 -80.1 26C-85.3 18.6 -89.9 9.3 -94.5 0L0 0Z" fill="#5c5ae4"></path><path d="M0 47.3C-4.7 46.4 -9.4 45.6 -14.4 44.5C-19.5 43.4 -24.8 42 -27.8 38.2C-30.7 34.5 -31.3 28.4 -33 24C-34.7 19.5 -37.5 16.7 -40.1 13C-42.6 9.3 -44.9 4.7 -47.2 0L0 0Z" fill="#715df2"></path></g><g transform="translate(0, 540)"><path d="M0 -378C41 -372.5 81.9 -367 112.2 -345.2C142.4 -323.4 162 -285.4 190.4 -262.1C218.9 -238.9 256.4 -230.5 288 -209.3C319.6 -188 345.5 -153.8 359.5 -116.8C373.5 -79.8 375.8 -39.9 378 0L0 0Z" fill="#00192e"></path><path d="M0 -330.7C35.8 -325.9 71.7 -321.1 98.2 -302.1C124.6 -283 141.7 -249.7 166.6 -229.4C191.6 -209 224.3 -201.7 252 -183.1C279.7 -164.5 302.3 -134.6 314.6 -102.2C326.8 -69.8 328.8 -34.9 330.8 0L0 0Z" fill="#00264b"></path><path d="M0 -283.5C30.7 -279.4 61.4 -275.3 84.1 -258.9C106.8 -242.6 121.5 -214 142.8 -196.6C164.2 -179.2 192.3 -172.9 216 -156.9C239.7 -141 259.1 -115.4 269.6 -87.6C280.1 -59.8 281.8 -29.9 283.5 0L0 0Z" fill="#00336a"></path><path d="M0 -236.2C25.6 -232.8 51.2 -229.4 70.1 -215.8C89 -202.2 101.2 -178.3 119 -163.8C136.8 -149.3 160.2 -144.1 180 -130.8C199.8 -117.5 215.9 -96.1 224.7 -73C233.5 -49.9 234.9 -24.9 236.3 0L0 0Z" fill="#003f8a"></path><path d="M0 -189C20.5 -186.3 41 -183.5 56.1 -172.6C71.2 -161.7 81 -142.7 95.2 -131.1C109.5 -119.4 128.2 -115.3 144 -104.6C159.8 -94 172.7 -76.9 179.7 -58.4C186.8 -39.9 187.9 -19.9 189 0L0 0Z" fill="#004aa9"></path><path d="M0 -141.7C15.4 -139.7 30.7 -137.6 42.1 -129.5C53.4 -121.3 60.7 -107 71.4 -98.3C82.1 -89.6 96.1 -86.4 108 -78.5C119.9 -70.5 129.6 -57.7 134.8 -43.8C140.1 -29.9 140.9 -15 141.8 0L0 0Z" fill="#3153c8"></path><path d="M0 -94.5C10.2 -93.1 20.5 -91.8 28 -86.3C35.6 -80.9 40.5 -71.3 47.6 -65.5C54.7 -59.7 64.1 -57.6 72 -52.3C79.9 -47 86.4 -38.5 89.9 -29.2C93.4 -19.9 93.9 -10 94.5 0L0 0Z" fill="#5c5ae4"></path><path d="M0 -47.2C5.1 -46.6 10.2 -45.9 14 -43.2C17.8 -40.4 20.2 -35.7 23.8 -32.8C27.4 -29.9 32 -28.8 36 -26.2C40 -23.5 43.2 -19.2 44.9 -14.6C46.7 -10 47 -5 47.3 0L0 0Z" fill="#715df2"></path></g></svg>