<svg width="273" height="45" viewBox="0 0 273 45" fill="none" xmlns="http://www.w3.org/2000/svg">
<path d="M20.3789 27.6836C20.3789 25.9141 20.5312 24.2617 20.8359 22.7266C21.1406 21.1797 21.6035 19.6621 22.2246 18.1738C22.8457 16.6738 23.6133 15.1738 24.5273 13.6738C25.0781 12.7598 25.541 12.1035 25.916 11.7051C26.291 11.2949 26.6426 11.043 26.9707 10.9492C27.3105 10.8438 27.7441 10.791 28.2715 10.791C28.8457 10.791 29.1328 10.9492 29.1328 11.2656C29.1328 11.3711 28.8633 12.0098 28.3242 13.1816C27.7852 14.3418 27.2754 15.5605 26.7949 16.8379C26.3262 18.1152 25.8867 19.709 25.4766 21.6191C25.0781 23.5293 24.8789 25.5508 24.8789 27.6836C24.8789 29.793 25.0781 31.791 25.4766 33.6777C25.875 35.5645 26.3262 37.1992 26.8301 38.582C27.3457 39.9648 27.8555 41.2012 28.3594 42.291C28.875 43.3926 29.1328 43.9902 29.1328 44.084C29.1328 44.4004 28.8457 44.5586 28.2715 44.5586C27.7324 44.5586 27.293 44.5 26.9531 44.3828C26.625 44.2773 26.2793 44.0195 25.916 43.6094C25.5527 43.1992 25.0898 42.543 24.5273 41.6406C23.6016 40.0938 22.834 38.5996 22.2246 37.1582C21.627 35.7285 21.1699 34.2402 20.8535 32.6934C20.5371 31.1465 20.3789 29.4766 20.3789 27.6836ZM43.7578 35.4531L40.2773 30.3379L36.709 35.4531C36.1934 36.168 35.7539 36.6777 35.3906 36.9824C35.0391 37.2871 34.5879 37.4395 34.0371 37.4395C33.4277 37.4395 32.9062 37.252 32.4727 36.877C32.0508 36.4902 31.8398 36.0508 31.8398 35.5586C31.8398 35.0547 32.168 34.334 32.8242 33.3965L37.166 27.1738L33.3164 21.9883C32.6484 21.1328 32.3145 20.3887 32.3145 19.7559C32.3145 19.2637 32.5137 18.8359 32.9121 18.4727C33.3105 18.1094 33.832 17.9277 34.4766 17.9277C35.0391 17.9277 35.502 18.0859 35.8652 18.4023C36.2402 18.7188 36.6738 19.2168 37.166 19.8965L40.2773 24.1504L43.3008 19.8965C43.8047 19.1934 44.2383 18.6895 44.6016 18.3848C44.9766 18.0801 45.4395 17.9277 45.9902 17.9277C46.623 17.9277 47.1445 18.1094 47.5547 18.4727C47.9766 18.8242 48.1875 19.252 48.1875 19.7559C48.1875 20.1191 48.0996 20.4707 47.9238 20.8105C47.7598 21.1387 47.502 21.5312 47.1504 21.9883L43.3008 27.1738L47.6426 33.3965C48.3223 34.3691 48.6621 35.1016 48.6621 35.5938C48.6621 36.0977 48.4512 36.5312 48.0293 36.8945C47.6074 37.2578 47.0859 37.4395 46.4648 37.4395C45.9141 37.4395 45.4453 37.2812 45.0586 36.9648C44.6836 36.6484 44.25 36.1445 43.7578 35.4531ZM62.3906 33.291H57.8555V26.5938H51.123V21.9883H57.8555V15.2559H62.3906V21.9883H69.1582V26.5938H62.3906V33.291ZM102.557 27.6836C102.557 30.2617 102.211 32.6582 101.52 34.873C100.84 37.0879 99.8027 39.3438 98.4082 41.6406C97.623 42.9297 97.002 43.7383 96.5449 44.0664C96.0879 44.3945 95.4668 44.5586 94.6816 44.5586C94.0957 44.5586 93.8027 44.4004 93.8027 44.084C93.8027 43.9785 94.0488 43.4102 94.541 42.3789C95.0332 41.3594 95.543 40.1406 96.0703 38.7227C96.6094 37.3047 97.0723 35.6406 97.459 33.7305C97.8574 31.8086 98.0566 29.793 98.0566 27.6836C98.0566 25.5625 97.8574 23.541 97.459 21.6191C97.0605 19.6973 96.5977 18.0332 96.0703 16.627C95.543 15.2207 95.0332 14.002 94.541 12.9707C94.0488 11.9277 93.8027 11.3594 93.8027 11.2656C93.8027 10.9492 94.0957 10.791 94.6816 10.791C95.502 10.791 96.1348 10.9492 96.5801 11.2656C97.0254 11.5703 97.6348 12.373 98.4082 13.6738C99.0996 14.8223 99.7031 15.9531 100.219 17.0664C100.734 18.1797 101.162 19.293 101.502 20.4062C101.854 21.5195 102.117 22.6797 102.293 23.8867C102.469 25.0938 102.557 26.3594 102.557 27.6836ZM117.551 33.291H113.016V26.5938H106.283V21.9883H113.016V15.2559H117.551V21.9883H124.318V26.5938H117.551V33.291ZM128.062 27.6836C128.062 25.9141 128.215 24.2617 128.52 22.7266C128.824 21.1797 129.287 19.6621 129.908 18.1738C130.529 16.6738 131.297 15.1738 132.211 13.6738C132.762 12.7598 133.225 12.1035 133.6 11.7051C133.975 11.2949 134.326 11.043 134.654 10.9492C134.994 10.8438 135.428 10.791 135.955 10.791C136.529 10.791 136.816 10.9492 136.816 11.2656C136.816 11.3711 136.547 12.0098 136.008 13.1816C135.469 14.3418 134.959 15.5605 134.479 16.8379C134.01 18.1152 133.57 19.709 133.16 21.6191C132.762 23.5293 132.562 25.5508 132.562 27.6836C132.562 29.793 132.762 31.791 133.16 33.6777C133.559 35.5645 134.01 37.1992 134.514 38.582C135.029 39.9648 135.539 41.2012 136.043 42.291C136.559 43.3926 136.816 43.9902 136.816 44.084C136.816 44.4004 136.529 44.5586 135.955 44.5586C135.416 44.5586 134.977 44.5 134.637 44.3828C134.309 44.2773 133.963 44.0195 133.6 43.6094C133.236 43.1992 132.773 42.543 132.211 41.6406C131.285 40.0938 130.518 38.5996 129.908 37.1582C129.311 35.7285 128.854 34.2402 128.537 32.6934C128.221 31.1465 128.062 29.4766 128.062 27.6836ZM151.441 35.4531L147.961 30.3379L144.393 35.4531C143.877 36.168 143.438 36.6777 143.074 36.9824C142.723 37.2871 142.271 37.4395 141.721 37.4395C141.111 37.4395 140.59 37.252 140.156 36.877C139.734 36.4902 139.523 36.0508 139.523 35.5586C139.523 35.0547 139.852 34.334 140.508 33.3965L144.85 27.1738L141 21.9883C140.332 21.1328 139.998 20.3887 139.998 19.7559C139.998 19.2637 140.197 18.8359 140.596 18.4727C140.994 18.1094 141.516 17.9277 142.16 17.9277C142.723 17.9277 143.186 18.0859 143.549 18.4023C143.924 18.7188 144.357 19.2168 144.85 19.8965L147.961 24.1504L150.984 19.8965C151.488 19.1934 151.922 18.6895 152.285 18.3848C152.66 18.0801 153.123 17.9277 153.674 17.9277C154.307 17.9277 154.828 18.1094 155.238 18.4727C155.66 18.8242 155.871 19.252 155.871 19.7559C155.871 20.1191 155.783 20.4707 155.607 20.8105C155.443 21.1387 155.186 21.5312 154.834 21.9883L150.984 27.1738L155.326 33.3965C156.006 34.3691 156.346 35.1016 156.346 35.5938C156.346 36.0977 156.135 36.5312 155.713 36.8945C155.291 37.2578 154.77 37.4395 154.148 37.4395C153.598 37.4395 153.129 37.2812 152.742 36.9648C152.367 36.6484 151.934 36.1445 151.441 35.4531ZM170.074 33.291H165.539V26.5938H158.807V21.9883H165.539V15.2559H170.074V21.9883H176.842V26.5938H170.074V33.291ZM210.24 27.6836C210.24 30.2617 209.895 32.6582 209.203 34.873C208.523 37.0879 207.486 39.3438 206.092 41.6406C205.307 42.9297 204.686 43.7383 204.229 44.0664C203.771 44.3945 203.15 44.5586 202.365 44.5586C201.779 44.5586 201.486 44.4004 201.486 44.084C201.486 43.9785 201.732 43.4102 202.225 42.3789C202.717 41.3594 203.227 40.1406 203.754 38.7227C204.293 37.3047 204.756 35.6406 205.143 33.7305C205.541 31.8086 205.74 29.793 205.74 27.6836C205.74 25.5625 205.541 23.541 205.143 21.6191C204.744 19.6973 204.281 18.0332 203.754 16.627C203.227 15.2207 202.717 14.002 202.225 12.9707C201.732 11.9277 201.486 11.3594 201.486 11.2656C201.486 10.9492 201.779 10.791 202.365 10.791C203.186 10.791 203.818 10.9492 204.264 11.2656C204.709 11.5703 205.318 12.373 206.092 13.6738C206.783 14.8223 207.387 15.9531 207.902 17.0664C208.418 18.1797 208.846 19.293 209.186 20.4062C209.537 21.5195 209.801 22.6797 209.977 23.8867C210.152 25.0938 210.24 26.3594 210.24 27.6836ZM232.002 30.4785H213.967V25.873H232.002V30.4785ZM232.002 22.6738H213.967V18.0684H232.002V22.6738ZM253.166 24.3613C253.166 26.2832 253.049 27.9355 252.814 29.3184C252.58 30.7012 252.146 31.9551 251.514 33.0801C250.717 34.4629 249.686 35.5293 248.42 36.2793C247.154 37.0293 245.748 37.4043 244.201 37.4043C242.42 37.4043 240.82 36.9004 239.402 35.8926C237.996 34.8848 236.936 33.4902 236.221 31.709C235.857 30.7363 235.588 29.6641 235.412 28.4922C235.248 27.3086 235.166 26.0312 235.166 24.6602C235.166 22.8906 235.26 21.2969 235.447 19.8789C235.635 18.4609 235.928 17.2422 236.326 16.2227C237.018 14.5352 238.02 13.252 239.332 12.373C240.656 11.4824 242.232 11.0371 244.061 11.0371C245.268 11.0371 246.363 11.2363 247.348 11.6348C248.332 12.0215 249.193 12.5957 249.932 13.3574C250.682 14.1074 251.314 15.0391 251.83 16.1523C252.721 18.0859 253.166 20.8223 253.166 24.3613ZM248.35 24.0098C248.35 21.8652 248.221 20.1133 247.963 18.7539C247.705 17.3828 247.271 16.3516 246.662 15.6602C246.053 14.957 245.209 14.6055 244.131 14.6055C242.584 14.6055 241.506 15.3848 240.896 16.9434C240.299 18.502 240 20.9043 240 24.1504C240 26.3535 240.129 28.1582 240.387 29.5645C240.645 30.9707 241.078 32.0371 241.688 32.7637C242.297 33.4785 243.123 33.8359 244.166 33.8359C245.244 33.8359 246.088 33.4609 246.697 32.7109C247.307 31.9609 247.734 30.8887 247.98 29.4941C248.227 28.0996 248.35 26.2715 248.35 24.0098Z" fill="black"/>
<path d="M78.668 32.8516H87.8438C88.7578 32.8516 89.4551 33.0391 89.9355 33.4141C90.416 33.7891 90.6562 34.2988 90.6562 34.9434C90.6562 35.5176 90.4629 36.0039 90.0762 36.4023C89.7012 36.8008 89.127 37 88.3535 37H75.416C74.5371 37 73.8516 36.7598 73.3594 36.2793C72.8672 35.7871 72.6211 35.2129 72.6211 34.5566C72.6211 34.1348 72.7793 33.5781 73.0957 32.8867C73.4121 32.1836 73.7578 31.6328 74.1328 31.2344C75.6914 29.6172 77.0977 28.2344 78.3516 27.0859C79.6055 25.9258 80.502 25.1641 81.041 24.8008C82.002 24.1211 82.7988 23.4414 83.4316 22.7617C84.0762 22.0703 84.5625 21.3672 84.8906 20.6523C85.2305 19.9258 85.4004 19.2168 85.4004 18.5254C85.4004 17.7754 85.2188 17.1074 84.8555 16.5215C84.5039 15.9238 84.0176 15.4609 83.3965 15.1328C82.7871 14.8047 82.1191 14.6406 81.3926 14.6406C79.8574 14.6406 78.6504 15.3145 77.7715 16.6621C77.6543 16.8379 77.4551 17.3184 77.1738 18.1035C76.9043 18.8887 76.5938 19.4922 76.2422 19.9141C75.9023 20.3359 75.3984 20.5469 74.7305 20.5469C74.1445 20.5469 73.6582 20.3535 73.2715 19.9668C72.8848 19.5801 72.6914 19.0527 72.6914 18.3848C72.6914 17.5762 72.873 16.7324 73.2363 15.8535C73.5996 14.9746 74.1387 14.1777 74.8535 13.4629C75.5801 12.748 76.4941 12.1738 77.5957 11.7402C78.709 11.2949 80.0098 11.0723 81.498 11.0723C83.291 11.0723 84.8203 11.3535 86.0859 11.916C86.9062 12.291 87.627 12.8066 88.248 13.4629C88.8691 14.1191 89.3496 14.8809 89.6895 15.748C90.041 16.6035 90.2168 17.4941 90.2168 18.4199C90.2168 19.873 89.8535 21.1973 89.127 22.3926C88.4121 23.5762 87.6797 24.5078 86.9297 25.1875C86.1797 25.8555 84.9199 26.9102 83.1504 28.3516C81.3926 29.793 80.1855 30.9121 79.5293 31.709C79.248 32.0254 78.9609 32.4062 78.668 32.8516Z" fill="#8CA8E1"/>
<path d="M188.18 21.4434C189.258 21.4434 190.184 21.127 190.957 20.4941C191.742 19.8613 192.135 18.9531 192.135 17.7695C192.135 16.8672 191.824 16.0938 191.203 15.4492C190.582 14.793 189.744 14.4648 188.689 14.4648C187.975 14.4648 187.383 14.5645 186.914 14.7637C186.457 14.9629 186.094 15.2266 185.824 15.5547C185.555 15.8828 185.297 16.3047 185.051 16.8203C184.816 17.3359 184.6 17.8223 184.4 18.2793C184.283 18.5254 184.072 18.7188 183.768 18.8594C183.463 19 183.111 19.0703 182.713 19.0703C182.244 19.0703 181.811 18.8828 181.412 18.5078C181.025 18.1211 180.832 17.6113 180.832 16.9785C180.832 16.3691 181.014 15.7305 181.377 15.0625C181.752 14.3828 182.291 13.7383 182.994 13.1289C183.709 12.5195 184.594 12.0332 185.648 11.6699C186.703 11.2949 187.881 11.1074 189.182 11.1074C190.318 11.1074 191.355 11.2656 192.293 11.582C193.23 11.8867 194.045 12.332 194.736 12.918C195.428 13.5039 195.949 14.1836 196.301 14.957C196.652 15.7305 196.828 16.5625 196.828 17.4531C196.828 18.625 196.57 19.6328 196.055 20.4766C195.551 21.3086 194.824 22.123 193.875 22.9199C194.789 23.4121 195.557 23.9746 196.178 24.6074C196.811 25.2402 197.285 25.9434 197.602 26.7168C197.918 27.4785 198.076 28.3047 198.076 29.1953C198.076 30.2617 197.859 31.293 197.426 32.2891C197.004 33.2852 196.377 34.1758 195.545 34.9609C194.713 35.7344 193.723 36.3438 192.574 36.7891C191.438 37.2227 190.178 37.4395 188.795 37.4395C187.389 37.4395 186.129 37.1875 185.016 36.6836C183.902 36.1797 182.982 35.5527 182.256 34.8027C181.541 34.041 180.996 33.2559 180.621 32.4473C180.258 31.6387 180.076 30.9707 180.076 30.4434C180.076 29.7637 180.293 29.2188 180.727 28.8086C181.172 28.3867 181.723 28.1758 182.379 28.1758C182.707 28.1758 183.023 28.2754 183.328 28.4746C183.633 28.6621 183.832 28.8906 183.926 29.1602C184.535 30.7891 185.186 32.002 185.877 32.7988C186.58 33.584 187.564 33.9766 188.83 33.9766C189.557 33.9766 190.254 33.8008 190.922 33.4492C191.602 33.0859 192.158 32.5527 192.592 31.8496C193.037 31.1465 193.26 30.332 193.26 29.4062C193.26 28.0352 192.885 26.9629 192.135 26.1895C191.385 25.4043 190.342 25.0117 189.006 25.0117C188.771 25.0117 188.408 25.0352 187.916 25.082C187.424 25.1289 187.107 25.1523 186.967 25.1523C186.322 25.1523 185.824 24.9941 185.473 24.6777C185.121 24.3496 184.945 23.8984 184.945 23.3242C184.945 22.7617 185.156 22.3105 185.578 21.9707C186 21.6191 186.627 21.4434 187.459 21.4434H188.18Z" fill="#9B89E4"/>
</svg>
