<svg width="273" height="45" viewBox="0 0 273 45" fill="none" xmlns="http://www.w3.org/2000/svg">
<path d="M13.3301 35.4531L9.84961 30.3379L6.28125 35.4531C5.76562 36.168 5.32617 36.6777 4.96289 36.9824C4.61133 37.2871 4.16016 37.4395 3.60938 37.4395C3 37.4395 2.47852 37.252 2.04492 36.877C1.62305 36.4902 1.41211 36.0508 1.41211 35.5586C1.41211 35.0547 1.74023 34.334 2.39648 33.3965L6.73828 27.1738L2.88867 21.9883C2.2207 21.1328 1.88672 20.3887 1.88672 19.7559C1.88672 19.2637 2.08594 18.8359 2.48438 18.4727C2.88281 18.1094 3.4043 17.9277 4.04883 17.9277C4.61133 17.9277 5.07422 18.0859 5.4375 18.4023C5.8125 18.7188 6.24609 19.2168 6.73828 19.8965L9.84961 24.1504L12.873 19.8965C13.377 19.1934 13.8105 18.6895 14.1738 18.3848C14.5488 18.0801 15.0117 17.9277 15.5625 17.9277C16.1953 17.9277 16.7168 18.1094 17.127 18.4727C17.5488 18.8242 17.7598 19.252 17.7598 19.7559C17.7598 20.1191 17.6719 20.4707 17.4961 20.8105C17.332 21.1387 17.0742 21.5312 16.7227 21.9883L12.873 27.1738L17.2148 33.3965C17.8945 34.3691 18.2344 35.1016 18.2344 35.5938C18.2344 36.0977 18.0234 36.5312 17.6016 36.8945C17.1797 37.2578 16.6582 37.4395 16.0371 37.4395C15.4863 37.4395 15.0176 37.2812 14.6309 36.9648C14.2559 36.6484 13.8223 36.1445 13.3301 35.4531ZM40.9629 33.291H36.4277V26.5938H29.6953V21.9883H36.4277V15.2559H40.9629V21.9883H47.7305V26.5938H40.9629V33.291ZM83.502 35.4531L80.0215 30.3379L76.4531 35.4531C75.9375 36.168 75.498 36.6777 75.1348 36.9824C74.7832 37.2871 74.332 37.4395 73.7812 37.4395C73.1719 37.4395 72.6504 37.252 72.2168 36.877C71.7949 36.4902 71.584 36.0508 71.584 35.5586C71.584 35.0547 71.9121 34.334 72.5684 33.3965L76.9102 27.1738L73.0605 21.9883C72.3926 21.1328 72.0586 20.3887 72.0586 19.7559C72.0586 19.2637 72.2578 18.8359 72.6562 18.4727C73.0547 18.1094 73.5762 17.9277 74.2207 17.9277C74.7832 17.9277 75.2461 18.0859 75.6094 18.4023C75.9844 18.7188 76.418 19.2168 76.9102 19.8965L80.0215 24.1504L83.0449 19.8965C83.5488 19.1934 83.9824 18.6895 84.3457 18.3848C84.7207 18.0801 85.1836 17.9277 85.7344 17.9277C86.3672 17.9277 86.8887 18.1094 87.2988 18.4727C87.7207 18.8242 87.9316 19.252 87.9316 19.7559C87.9316 20.1191 87.8438 20.4707 87.668 20.8105C87.5039 21.1387 87.2461 21.5312 86.8945 21.9883L83.0449 27.1738L87.3867 33.3965C88.0664 34.3691 88.4062 35.1016 88.4062 35.5938C88.4062 36.0977 88.1953 36.5312 87.7734 36.8945C87.3516 37.2578 86.8301 37.4395 86.209 37.4395C85.6582 37.4395 85.1895 37.2812 84.8027 36.9648C84.4277 36.6484 83.9941 36.1445 83.502 35.4531ZM102.135 33.291H97.5996V26.5938H90.8672V21.9883H97.5996V15.2559H102.135V21.9883H108.902V26.5938H102.135V33.291ZM144.674 35.4531L141.193 30.3379L137.625 35.4531C137.109 36.168 136.67 36.6777 136.307 36.9824C135.955 37.2871 135.504 37.4395 134.953 37.4395C134.344 37.4395 133.822 37.252 133.389 36.877C132.967 36.4902 132.756 36.0508 132.756 35.5586C132.756 35.0547 133.084 34.334 133.74 33.3965L138.082 27.1738L134.232 21.9883C133.564 21.1328 133.23 20.3887 133.23 19.7559C133.23 19.2637 133.43 18.8359 133.828 18.4727C134.227 18.1094 134.748 17.9277 135.393 17.9277C135.955 17.9277 136.418 18.0859 136.781 18.4023C137.156 18.7188 137.59 19.2168 138.082 19.8965L141.193 24.1504L144.217 19.8965C144.721 19.1934 145.154 18.6895 145.518 18.3848C145.893 18.0801 146.355 17.9277 146.906 17.9277C147.539 17.9277 148.061 18.1094 148.471 18.4727C148.893 18.8242 149.104 19.252 149.104 19.7559C149.104 20.1191 149.016 20.4707 148.84 20.8105C148.676 21.1387 148.418 21.5312 148.066 21.9883L144.217 27.1738L148.559 33.3965C149.238 34.3691 149.578 35.1016 149.578 35.5938C149.578 36.0977 149.367 36.5312 148.945 36.8945C148.523 37.2578 148.002 37.4395 147.381 37.4395C146.83 37.4395 146.361 37.2812 145.975 36.9648C145.6 36.6484 145.166 36.1445 144.674 35.4531ZM163.307 33.291H158.771V26.5938H152.039V21.9883H158.771V15.2559H163.307V21.9883H170.074V26.5938H163.307V33.291ZM201.82 15.5371C202.582 15.1855 203.309 14.834 204 14.4824C204.691 14.1309 205.242 13.873 205.652 13.709C206.062 13.5449 206.391 13.4629 206.637 13.4629C207.047 13.4629 207.398 13.6035 207.691 13.8848C207.996 14.1543 208.148 14.4941 208.148 14.9043C208.148 15.1387 208.072 15.3848 207.92 15.6426C207.779 15.8887 207.627 16.0469 207.463 16.1172C205.951 16.7148 204.287 17.1484 202.471 17.418C202.799 17.7227 203.203 18.127 203.684 18.6309C204.164 19.1348 204.416 19.4043 204.439 19.4395C204.615 19.6855 204.861 19.9902 205.178 20.3535C205.494 20.7168 205.711 21.0039 205.828 21.2148C205.957 21.4141 206.021 21.6602 206.021 21.9531C206.021 22.3281 205.881 22.6562 205.6 22.9375C205.318 23.2188 204.955 23.3594 204.51 23.3594C204.064 23.3594 203.561 23.0137 202.998 22.3223C202.447 21.6309 201.732 20.3887 200.854 18.5957C199.963 20.2129 199.365 21.2793 199.061 21.7949C198.756 22.3105 198.463 22.7031 198.182 22.9727C197.9 23.2305 197.578 23.3594 197.215 23.3594C196.781 23.3594 196.418 23.2129 196.125 22.9199C195.844 22.6152 195.703 22.293 195.703 21.9531C195.703 21.6367 195.762 21.3965 195.879 21.2324C196.957 19.7676 198.082 18.4961 199.254 17.418C198.27 17.2656 197.391 17.0957 196.617 16.9082C195.844 16.7207 195.023 16.4453 194.156 16.082C194.016 16.0117 193.875 15.8535 193.734 15.6074C193.605 15.3496 193.541 15.1152 193.541 14.9043C193.541 14.4941 193.688 14.1543 193.98 13.8848C194.285 13.6035 194.631 13.4629 195.018 13.4629C195.299 13.4629 195.65 13.5508 196.072 13.7266C196.494 13.8906 197.027 14.1367 197.672 14.4648C198.328 14.7812 199.072 15.1387 199.904 15.5371C199.752 14.7988 199.623 13.9551 199.518 13.0059C199.424 12.0449 199.377 11.3887 199.377 11.0371C199.377 10.6035 199.512 10.2344 199.781 9.92969C200.062 9.61328 200.42 9.45508 200.854 9.45508C201.275 9.45508 201.621 9.61328 201.891 9.92969C202.172 10.2344 202.312 10.6445 202.312 11.1602C202.312 11.3008 202.289 11.582 202.242 12.0039C202.207 12.4141 202.148 12.918 202.066 13.5156C201.996 14.1016 201.914 14.7754 201.82 15.5371ZM249.668 30.4785H231.633V25.873H249.668V30.4785ZM249.668 22.6738H231.633V18.0684H249.668V22.6738ZM270.832 24.3613C270.832 26.2832 270.715 27.9355 270.48 29.3184C270.246 30.7012 269.812 31.9551 269.18 33.0801C268.383 34.4629 267.352 35.5293 266.086 36.2793C264.82 37.0293 263.414 37.4043 261.867 37.4043C260.086 37.4043 258.486 36.9004 257.068 35.8926C255.662 34.8848 254.602 33.4902 253.887 31.709C253.523 30.7363 253.254 29.6641 253.078 28.4922C252.914 27.3086 252.832 26.0312 252.832 24.6602C252.832 22.8906 252.926 21.2969 253.113 19.8789C253.301 18.4609 253.594 17.2422 253.992 16.2227C254.684 14.5352 255.686 13.252 256.998 12.373C258.322 11.4824 259.898 11.0371 261.727 11.0371C262.934 11.0371 264.029 11.2363 265.014 11.6348C265.998 12.0215 266.859 12.5957 267.598 13.3574C268.348 14.1074 268.98 15.0391 269.496 16.1523C270.387 18.0859 270.832 20.8223 270.832 24.3613ZM266.016 24.0098C266.016 21.8652 265.887 20.1133 265.629 18.7539C265.371 17.3828 264.938 16.3516 264.328 15.6602C263.719 14.957 262.875 14.6055 261.797 14.6055C260.25 14.6055 259.172 15.3848 258.562 16.9434C257.965 18.502 257.666 20.9043 257.666 24.1504C257.666 26.3535 257.795 28.1582 258.053 29.5645C258.311 30.9707 258.744 32.0371 259.354 32.7637C259.963 33.4785 260.789 33.8359 261.832 33.8359C262.91 33.8359 263.754 33.4609 264.363 32.7109C264.973 31.9609 265.4 30.8887 265.646 29.4941C265.893 28.0996 266.016 26.2715 266.016 24.0098Z" fill="black"/>
<path d="M57.2402 32.8516H66.416C67.3301 32.8516 68.0273 33.0391 68.5078 33.4141C68.9883 33.7891 69.2285 34.2988 69.2285 34.9434C69.2285 35.5176 69.0352 36.0039 68.6484 36.4023C68.2734 36.8008 67.6992 37 66.9258 37H53.9883C53.1094 37 52.4238 36.7598 51.9316 36.2793C51.4395 35.7871 51.1934 35.2129 51.1934 34.5566C51.1934 34.1348 51.3516 33.5781 51.668 32.8867C51.9844 32.1836 52.3301 31.6328 52.7051 31.2344C54.2637 29.6172 55.6699 28.2344 56.9238 27.0859C58.1777 25.9258 59.0742 25.1641 59.6133 24.8008C60.5742 24.1211 61.3711 23.4414 62.0039 22.7617C62.6484 22.0703 63.1348 21.3672 63.4629 20.6523C63.8027 19.9258 63.9727 19.2168 63.9727 18.5254C63.9727 17.7754 63.791 17.1074 63.4277 16.5215C63.0762 15.9238 62.5898 15.4609 61.9688 15.1328C61.3594 14.8047 60.6914 14.6406 59.9648 14.6406C58.4297 14.6406 57.2227 15.3145 56.3438 16.6621C56.2266 16.8379 56.0273 17.3184 55.7461 18.1035C55.4766 18.8887 55.166 19.4922 54.8145 19.9141C54.4746 20.3359 53.9707 20.5469 53.3027 20.5469C52.7168 20.5469 52.2305 20.3535 51.8438 19.9668C51.457 19.5801 51.2637 19.0527 51.2637 18.3848C51.2637 17.5762 51.4453 16.7324 51.8086 15.8535C52.1719 14.9746 52.7109 14.1777 53.4258 13.4629C54.1523 12.748 55.0664 12.1738 56.168 11.7402C57.2812 11.2949 58.582 11.0723 60.0703 11.0723C61.8633 11.0723 63.3926 11.3535 64.6582 11.916C65.4785 12.291 66.1992 12.8066 66.8203 13.4629C67.4414 14.1191 67.9219 14.8809 68.2617 15.748C68.6133 16.6035 68.7891 17.4941 68.7891 18.4199C68.7891 19.873 68.4258 21.1973 67.6992 22.3926C66.9844 23.5762 66.252 24.5078 65.502 25.1875C64.752 25.8555 63.4922 26.9102 61.7227 28.3516C59.9648 29.793 58.7578 30.9121 58.1016 31.709C57.8203 32.0254 57.5332 32.4062 57.2402 32.8516ZM179.584 32.8516H188.76C189.674 32.8516 190.371 33.0391 190.852 33.4141C191.332 33.7891 191.572 34.2988 191.572 34.9434C191.572 35.5176 191.379 36.0039 190.992 36.4023C190.617 36.8008 190.043 37 189.27 37H176.332C175.453 37 174.768 36.7598 174.275 36.2793C173.783 35.7871 173.537 35.2129 173.537 34.5566C173.537 34.1348 173.695 33.5781 174.012 32.8867C174.328 32.1836 174.674 31.6328 175.049 31.2344C176.607 29.6172 178.014 28.2344 179.268 27.0859C180.521 25.9258 181.418 25.1641 181.957 24.8008C182.918 24.1211 183.715 23.4414 184.348 22.7617C184.992 22.0703 185.479 21.3672 185.807 20.6523C186.146 19.9258 186.316 19.2168 186.316 18.5254C186.316 17.7754 186.135 17.1074 185.771 16.5215C185.42 15.9238 184.934 15.4609 184.312 15.1328C183.703 14.8047 183.035 14.6406 182.309 14.6406C180.773 14.6406 179.566 15.3145 178.688 16.6621C178.57 16.8379 178.371 17.3184 178.09 18.1035C177.82 18.8887 177.51 19.4922 177.158 19.9141C176.818 20.3359 176.314 20.5469 175.646 20.5469C175.061 20.5469 174.574 20.3535 174.188 19.9668C173.801 19.5801 173.607 19.0527 173.607 18.3848C173.607 17.5762 173.789 16.7324 174.152 15.8535C174.516 14.9746 175.055 14.1777 175.77 13.4629C176.496 12.748 177.41 12.1738 178.512 11.7402C179.625 11.2949 180.926 11.0723 182.414 11.0723C184.207 11.0723 185.736 11.3535 187.002 11.916C187.822 12.291 188.543 12.8066 189.164 13.4629C189.785 14.1191 190.266 14.8809 190.605 15.748C190.957 16.6035 191.133 17.4941 191.133 18.4199C191.133 19.873 190.77 21.1973 190.043 22.3926C189.328 23.5762 188.596 24.5078 187.846 25.1875C187.096 25.8555 185.836 26.9102 184.066 28.3516C182.309 29.793 181.102 30.9121 180.445 31.709C180.164 32.0254 179.877 32.4062 179.584 32.8516Z" fill="#8CA8E1"/>
<path d="M120.24 21.4434C121.318 21.4434 122.244 21.127 123.018 20.4941C123.803 19.8613 124.195 18.9531 124.195 17.7695C124.195 16.8672 123.885 16.0938 123.264 15.4492C122.643 14.793 121.805 14.4648 120.75 14.4648C120.035 14.4648 119.443 14.5645 118.975 14.7637C118.518 14.9629 118.154 15.2266 117.885 15.5547C117.615 15.8828 117.357 16.3047 117.111 16.8203C116.877 17.3359 116.66 17.8223 116.461 18.2793C116.344 18.5254 116.133 18.7188 115.828 18.8594C115.523 19 115.172 19.0703 114.773 19.0703C114.305 19.0703 113.871 18.8828 113.473 18.5078C113.086 18.1211 112.893 17.6113 112.893 16.9785C112.893 16.3691 113.074 15.7305 113.438 15.0625C113.812 14.3828 114.352 13.7383 115.055 13.1289C115.77 12.5195 116.654 12.0332 117.709 11.6699C118.764 11.2949 119.941 11.1074 121.242 11.1074C122.379 11.1074 123.416 11.2656 124.354 11.582C125.291 11.8867 126.105 12.332 126.797 12.918C127.488 13.5039 128.01 14.1836 128.361 14.957C128.713 15.7305 128.889 16.5625 128.889 17.4531C128.889 18.625 128.631 19.6328 128.115 20.4766C127.611 21.3086 126.885 22.123 125.936 22.9199C126.85 23.4121 127.617 23.9746 128.238 24.6074C128.871 25.2402 129.346 25.9434 129.662 26.7168C129.979 27.4785 130.137 28.3047 130.137 29.1953C130.137 30.2617 129.92 31.293 129.486 32.2891C129.064 33.2852 128.438 34.1758 127.605 34.9609C126.773 35.7344 125.783 36.3438 124.635 36.7891C123.498 37.2227 122.238 37.4395 120.855 37.4395C119.449 37.4395 118.189 37.1875 117.076 36.6836C115.963 36.1797 115.043 35.5527 114.316 34.8027C113.602 34.041 113.057 33.2559 112.682 32.4473C112.318 31.6387 112.137 30.9707 112.137 30.4434C112.137 29.7637 112.354 29.2188 112.787 28.8086C113.232 28.3867 113.783 28.1758 114.439 28.1758C114.768 28.1758 115.084 28.2754 115.389 28.4746C115.693 28.6621 115.893 28.8906 115.986 29.1602C116.596 30.7891 117.246 32.002 117.938 32.7988C118.641 33.584 119.625 33.9766 120.891 33.9766C121.617 33.9766 122.314 33.8008 122.982 33.4492C123.662 33.0859 124.219 32.5527 124.652 31.8496C125.098 31.1465 125.32 30.332 125.32 29.4062C125.32 28.0352 124.945 26.9629 124.195 26.1895C123.445 25.4043 122.402 25.0117 121.066 25.0117C120.832 25.0117 120.469 25.0352 119.977 25.082C119.484 25.1289 119.168 25.1523 119.027 25.1523C118.383 25.1523 117.885 24.9941 117.533 24.6777C117.182 24.3496 117.006 23.8984 117.006 23.3242C117.006 22.7617 117.217 22.3105 117.639 21.9707C118.061 21.6191 118.688 21.4434 119.52 21.4434H120.24Z" fill="#9B89E4"/>
<path d="M218.607 21.4434C219.686 21.4434 220.611 21.127 221.385 20.4941C222.17 19.8613 222.562 18.9531 222.562 17.7695C222.562 16.8672 222.252 16.0938 221.631 15.4492C221.01 14.793 220.172 14.4648 219.117 14.4648C218.402 14.4648 217.811 14.5645 217.342 14.7637C216.885 14.9629 216.521 15.2266 216.252 15.5547C215.982 15.8828 215.725 16.3047 215.479 16.8203C215.244 17.3359 215.027 17.8223 214.828 18.2793C214.711 18.5254 214.5 18.7188 214.195 18.8594C213.891 19 213.539 19.0703 213.141 19.0703C212.672 19.0703 212.238 18.8828 211.84 18.5078C211.453 18.1211 211.26 17.6113 211.26 16.9785C211.26 16.3691 211.441 15.7305 211.805 15.0625C212.18 14.3828 212.719 13.7383 213.422 13.1289C214.137 12.5195 215.021 12.0332 216.076 11.6699C217.131 11.2949 218.309 11.1074 219.609 11.1074C220.746 11.1074 221.783 11.2656 222.721 11.582C223.658 11.8867 224.473 12.332 225.164 12.918C225.855 13.5039 226.377 14.1836 226.729 14.957C227.08 15.7305 227.256 16.5625 227.256 17.4531C227.256 18.625 226.998 19.6328 226.482 20.4766C225.979 21.3086 225.252 22.123 224.303 22.9199C225.217 23.4121 225.984 23.9746 226.605 24.6074C227.238 25.2402 227.713 25.9434 228.029 26.7168C228.346 27.4785 228.504 28.3047 228.504 29.1953C228.504 30.2617 228.287 31.293 227.854 32.2891C227.432 33.2852 226.805 34.1758 225.973 34.9609C225.141 35.7344 224.15 36.3438 223.002 36.7891C221.865 37.2227 220.605 37.4395 219.223 37.4395C217.816 37.4395 216.557 37.1875 215.443 36.6836C214.33 36.1797 213.41 35.5527 212.684 34.8027C211.969 34.041 211.424 33.2559 211.049 32.4473C210.686 31.6387 210.504 30.9707 210.504 30.4434C210.504 29.7637 210.721 29.2188 211.154 28.8086C211.6 28.3867 212.15 28.1758 212.807 28.1758C213.135 28.1758 213.451 28.2754 213.756 28.4746C214.061 28.6621 214.26 28.8906 214.354 29.1602C214.963 30.7891 215.613 32.002 216.305 32.7988C217.008 33.584 217.992 33.9766 219.258 33.9766C219.984 33.9766 220.682 33.8008 221.35 33.4492C222.029 33.0859 222.586 32.5527 223.02 31.8496C223.465 31.1465 223.688 30.332 223.688 29.4062C223.688 28.0352 223.312 26.9629 222.562 26.1895C221.812 25.4043 220.77 25.0117 219.434 25.0117C219.199 25.0117 218.836 25.0352 218.344 25.082C217.852 25.1289 217.535 25.1523 217.395 25.1523C216.75 25.1523 216.252 24.9941 215.9 24.6777C215.549 24.3496 215.373 23.8984 215.373 23.3242C215.373 22.7617 215.584 22.3105 216.006 21.9707C216.428 21.6191 217.055 21.4434 217.887 21.4434H218.607Z" fill="#9B89E4"/>
<path d="M22.1641 14.9258H26.752C27.209 14.9258 27.5576 15.0195 27.7979 15.207C28.0381 15.3945 28.1582 15.6494 28.1582 15.9717C28.1582 16.2588 28.0615 16.502 27.8682 16.7012C27.6807 16.9004 27.3936 17 27.0068 17H20.5381C20.0986 17 19.7559 16.8799 19.5098 16.6396C19.2637 16.3936 19.1406 16.1064 19.1406 15.7783C19.1406 15.5674 19.2197 15.2891 19.3779 14.9434C19.5361 14.5918 19.709 14.3164 19.8965 14.1172C20.6758 13.3086 21.3789 12.6172 22.0059 12.043C22.6328 11.4629 23.0811 11.082 23.3506 10.9004C23.8311 10.5605 24.2295 10.2207 24.5459 9.88086C24.8682 9.53516 25.1113 9.18359 25.2754 8.82617C25.4453 8.46289 25.5303 8.1084 25.5303 7.7627C25.5303 7.3877 25.4395 7.05371 25.2578 6.76074C25.082 6.46191 24.8389 6.23047 24.5283 6.06641C24.2236 5.90234 23.8896 5.82031 23.5264 5.82031C22.7588 5.82031 22.1553 6.15723 21.7158 6.83105C21.6572 6.91895 21.5576 7.15918 21.417 7.55176C21.2822 7.94434 21.127 8.24609 20.9512 8.45703C20.7812 8.66797 20.5293 8.77344 20.1953 8.77344C19.9023 8.77344 19.6592 8.67676 19.4658 8.4834C19.2725 8.29004 19.1758 8.02637 19.1758 7.69238C19.1758 7.28809 19.2666 6.86621 19.4482 6.42676C19.6299 5.9873 19.8994 5.58887 20.2568 5.23145C20.6201 4.87402 21.0771 4.58691 21.6279 4.37012C22.1846 4.14746 22.835 4.03613 23.5791 4.03613C24.4756 4.03613 25.2402 4.17676 25.873 4.45801C26.2832 4.64551 26.6436 4.90332 26.9541 5.23145C27.2646 5.55957 27.5049 5.94043 27.6748 6.37402C27.8506 6.80176 27.9385 7.24707 27.9385 7.70996C27.9385 8.43652 27.7568 9.09863 27.3936 9.69629C27.0361 10.2881 26.6699 10.7539 26.2949 11.0938C25.9199 11.4277 25.29 11.9551 24.4053 12.6758C23.5264 13.3965 22.9229 13.9561 22.5947 14.3545C22.4541 14.5127 22.3105 14.7031 22.1641 14.9258Z" fill="#333333"/>
</svg>
