<svg width="174" height="46" viewBox="0 0 174 46" fill="none" xmlns="http://www.w3.org/2000/svg">
<path d="M13.0137 36.4531L9.5332 31.3379L5.96484 36.4531C5.44922 37.168 5.00977 37.6777 4.64648 37.9824C4.29492 38.2871 3.84375 38.4395 3.29297 38.4395C2.68359 38.4395 2.16211 38.252 1.72852 37.877C1.30664 37.4902 1.0957 37.0508 1.0957 36.5586C1.0957 36.0547 1.42383 35.334 2.08008 34.3965L6.42188 28.1738L2.57227 22.9883C1.9043 22.1328 1.57031 21.3887 1.57031 20.7559C1.57031 20.2637 1.76953 19.8359 2.16797 19.4727C2.56641 19.1094 3.08789 18.9277 3.73242 18.9277C4.29492 18.9277 4.75781 19.0859 5.12109 19.4023C5.49609 19.7188 5.92969 20.2168 6.42188 20.8965L9.5332 25.1504L12.5566 20.8965C13.0605 20.1934 13.4941 19.6895 13.8574 19.3848C14.2324 19.0801 14.6953 18.9277 15.2461 18.9277C15.8789 18.9277 16.4004 19.1094 16.8105 19.4727C17.2324 19.8242 17.4434 20.252 17.4434 20.7559C17.4434 21.1191 17.3555 21.4707 17.1797 21.8105C17.0156 22.1387 16.7578 22.5312 16.4062 22.9883L12.5566 28.1738L16.8984 34.3965C17.5781 35.3691 17.918 36.1016 17.918 36.5938C17.918 37.0977 17.707 37.5312 17.2852 37.8945C16.8633 38.2578 16.3418 38.4395 15.7207 38.4395C15.1699 38.4395 14.7012 38.2812 14.3145 37.9648C13.9395 37.6484 13.5059 37.1445 13.0137 36.4531ZM40.6465 34.291H36.1113V27.5938H29.3789V22.9883H36.1113V16.2559H40.6465V22.9883H47.4141V27.5938H40.6465V34.291ZM83.1855 36.4531L79.7051 31.3379L76.1367 36.4531C75.6211 37.168 75.1816 37.6777 74.8184 37.9824C74.4668 38.2871 74.0156 38.4395 73.4648 38.4395C72.8555 38.4395 72.334 38.252 71.9004 37.877C71.4785 37.4902 71.2676 37.0508 71.2676 36.5586C71.2676 36.0547 71.5957 35.334 72.252 34.3965L76.5938 28.1738L72.7441 22.9883C72.0762 22.1328 71.7422 21.3887 71.7422 20.7559C71.7422 20.2637 71.9414 19.8359 72.3398 19.4727C72.7383 19.1094 73.2598 18.9277 73.9043 18.9277C74.4668 18.9277 74.9297 19.0859 75.293 19.4023C75.668 19.7188 76.1016 20.2168 76.5938 20.8965L79.7051 25.1504L82.7285 20.8965C83.2324 20.1934 83.666 19.6895 84.0293 19.3848C84.4043 19.0801 84.8672 18.9277 85.418 18.9277C86.0508 18.9277 86.5723 19.1094 86.9824 19.4727C87.4043 19.8242 87.6152 20.252 87.6152 20.7559C87.6152 21.1191 87.5273 21.4707 87.3516 21.8105C87.1875 22.1387 86.9297 22.5312 86.5781 22.9883L82.7285 28.1738L87.0703 34.3965C87.75 35.3691 88.0898 36.1016 88.0898 36.5938C88.0898 37.0977 87.8789 37.5312 87.457 37.8945C87.0352 38.2578 86.5137 38.4395 85.8926 38.4395C85.3418 38.4395 84.873 38.2812 84.4863 37.9648C84.1113 37.6484 83.6777 37.1445 83.1855 36.4531ZM101.818 34.291H97.2832V27.5938H90.5508V22.9883H97.2832V16.2559H101.818V22.9883H108.586V27.5938H101.818V34.291ZM150.984 31.4785H132.949V26.873H150.984V31.4785ZM150.984 23.6738H132.949V19.0684H150.984V23.6738ZM172.148 25.3613C172.148 27.2832 172.031 28.9355 171.797 30.3184C171.562 31.7012 171.129 32.9551 170.496 34.0801C169.699 35.4629 168.668 36.5293 167.402 37.2793C166.137 38.0293 164.73 38.4043 163.184 38.4043C161.402 38.4043 159.803 37.9004 158.385 36.8926C156.979 35.8848 155.918 34.4902 155.203 32.709C154.84 31.7363 154.57 30.6641 154.395 29.4922C154.23 28.3086 154.148 27.0312 154.148 25.6602C154.148 23.8906 154.242 22.2969 154.43 20.8789C154.617 19.4609 154.91 18.2422 155.309 17.2227C156 15.5352 157.002 14.252 158.314 13.373C159.639 12.4824 161.215 12.0371 163.043 12.0371C164.25 12.0371 165.346 12.2363 166.33 12.6348C167.314 13.0215 168.176 13.5957 168.914 14.3574C169.664 15.1074 170.297 16.0391 170.812 17.1523C171.703 19.0859 172.148 21.8223 172.148 25.3613ZM167.332 25.0098C167.332 22.8652 167.203 21.1133 166.945 19.7539C166.688 18.3828 166.254 17.3516 165.645 16.6602C165.035 15.957 164.191 15.6055 163.113 15.6055C161.566 15.6055 160.488 16.3848 159.879 17.9434C159.281 19.502 158.982 21.9043 158.982 25.1504C158.982 27.3535 159.111 29.1582 159.369 30.5645C159.627 31.9707 160.061 33.0371 160.67 33.7637C161.279 34.4785 162.105 34.8359 163.148 34.8359C164.227 34.8359 165.07 34.4609 165.68 33.7109C166.289 32.9609 166.717 31.8887 166.963 30.4941C167.209 29.0996 167.332 27.2715 167.332 25.0098Z" fill="black"/>
<path d="M65.5547 16.5723H57.2051L56.2031 22.2676C57.8672 21.377 59.4023 20.9316 60.8086 20.9316C61.9336 20.9316 62.9824 21.1426 63.9551 21.5645C64.9395 21.9863 65.8008 22.5723 66.5391 23.3223C67.2773 24.0605 67.8574 24.9395 68.2793 25.959C68.7012 26.9785 68.9121 28.0742 68.9121 29.2461C68.9121 30.9453 68.5312 32.4922 67.7695 33.8867C67.0078 35.2812 65.9062 36.3887 64.4648 37.209C63.0352 38.0293 61.3828 38.4395 59.5078 38.4395C57.4102 38.4395 55.7051 38.0527 54.3926 37.2793C53.0918 36.5059 52.166 35.6211 51.6152 34.625C51.0762 33.6172 50.8066 32.7383 50.8066 31.9883C50.8066 31.5312 50.9941 31.0977 51.3691 30.6875C51.7559 30.2773 52.2363 30.0723 52.8105 30.0723C53.7949 30.0723 54.5273 30.6406 55.0078 31.7773C55.4766 32.8203 56.1094 33.6348 56.9062 34.2207C57.7031 34.7949 58.5938 35.082 59.5781 35.082C60.4805 35.082 61.2715 34.8477 61.9512 34.3789C62.6309 33.9102 63.1523 33.2656 63.5156 32.4453C63.8906 31.625 64.0781 30.6934 64.0781 29.6504C64.0781 28.5254 63.8789 27.5645 63.4805 26.7676C63.082 25.9707 62.5488 25.3789 61.8809 24.9922C61.2129 24.5938 60.4688 24.3945 59.6484 24.3945C58.6406 24.3945 57.9199 24.5176 57.4863 24.7637C57.0527 25.0098 56.4258 25.4434 55.6055 26.0645C54.7969 26.6738 54.1289 26.9785 53.6016 26.9785C53.0273 26.9785 52.5176 26.7734 52.0723 26.3633C51.627 25.9414 51.4043 25.4668 51.4043 24.9395C51.4043 24.8809 51.4688 24.4824 51.5977 23.7441L53.0742 15.3242C53.2383 14.3164 53.543 13.584 53.9883 13.127C54.4336 12.6699 55.1602 12.4414 56.168 12.4414H65.4492C67.2773 12.4414 68.1914 13.1387 68.1914 14.5332C68.1914 15.1426 67.9688 15.6348 67.5234 16.0098C67.0781 16.3848 66.4219 16.5723 65.5547 16.5723Z" fill="#5083EB"/>
<path d="M116.584 24.0605C117.381 23.1113 118.248 22.4082 119.186 21.9512C120.123 21.4941 121.172 21.2656 122.332 21.2656C123.445 21.2656 124.471 21.4766 125.408 21.8984C126.357 22.3086 127.184 22.9004 127.887 23.6738C128.602 24.4355 129.152 25.3379 129.539 26.3809C129.926 27.4238 130.119 28.5137 130.119 29.6504C130.119 31.3027 129.738 32.8027 128.977 34.1504C128.227 35.498 127.172 36.5527 125.812 37.3145C124.465 38.0645 122.936 38.4395 121.225 38.4395C119.256 38.4395 117.557 37.959 116.127 36.998C114.697 36.0371 113.602 34.6191 112.84 32.7441C112.09 30.8574 111.715 28.5547 111.715 25.8359C111.715 23.6211 111.943 21.6406 112.4 19.8945C112.857 18.1484 113.514 16.7012 114.369 15.5527C115.225 14.4043 116.262 13.5371 117.48 12.9512C118.699 12.3652 120.088 12.0723 121.646 12.0723C123.146 12.0723 124.465 12.3652 125.602 12.9512C126.75 13.5371 127.611 14.2637 128.186 15.1309C128.771 15.998 129.064 16.8301 129.064 17.627C129.064 18.1074 128.883 18.5469 128.52 18.9453C128.156 19.332 127.693 19.5254 127.131 19.5254C126.639 19.5254 126.182 19.373 125.76 19.0684C125.338 18.752 125.027 18.3184 124.828 17.7676C124.559 17.0645 124.131 16.502 123.545 16.0801C122.959 15.6465 122.279 15.4297 121.506 15.4297C120.885 15.4297 120.264 15.6113 119.643 15.9746C119.033 16.3262 118.518 16.8066 118.096 17.416C117.24 18.6582 116.736 20.873 116.584 24.0605ZM121.33 34.9766C122.514 34.9766 123.492 34.4961 124.266 33.5352C125.039 32.5625 125.426 31.291 125.426 29.7207C125.426 28.6543 125.244 27.7402 124.881 26.9785C124.518 26.2051 124.02 25.6191 123.387 25.2207C122.754 24.8105 122.057 24.6055 121.295 24.6055C120.568 24.6055 119.871 24.7988 119.203 25.1855C118.547 25.5723 118.014 26.1348 117.604 26.873C117.205 27.5996 117.006 28.4551 117.006 29.4395C117.006 31.0215 117.416 32.3398 118.236 33.3945C119.057 34.4492 120.088 34.9766 121.33 34.9766Z" fill="#6C4EE4"/>
<path d="M20.1641 14.9258H24.752C25.209 14.9258 25.5576 15.0195 25.7979 15.207C26.0381 15.3945 26.1582 15.6494 26.1582 15.9717C26.1582 16.2588 26.0615 16.502 25.8682 16.7012C25.6807 16.9004 25.3936 17 25.0068 17H18.5381C18.0986 17 17.7559 16.8799 17.5098 16.6396C17.2637 16.3936 17.1406 16.1064 17.1406 15.7783C17.1406 15.5674 17.2197 15.2891 17.3779 14.9434C17.5361 14.5918 17.709 14.3164 17.8965 14.1172C18.6758 13.3086 19.3789 12.6172 20.0059 12.043C20.6328 11.4629 21.0811 11.082 21.3506 10.9004C21.8311 10.5605 22.2295 10.2207 22.5459 9.88086C22.8682 9.53516 23.1113 9.18359 23.2754 8.82617C23.4453 8.46289 23.5303 8.1084 23.5303 7.7627C23.5303 7.3877 23.4395 7.05371 23.2578 6.76074C23.082 6.46191 22.8389 6.23047 22.5283 6.06641C22.2236 5.90234 21.8896 5.82031 21.5264 5.82031C20.7588 5.82031 20.1553 6.15723 19.7158 6.83105C19.6572 6.91895 19.5576 7.15918 19.417 7.55176C19.2822 7.94434 19.127 8.24609 18.9512 8.45703C18.7812 8.66797 18.5293 8.77344 18.1953 8.77344C17.9023 8.77344 17.6592 8.67676 17.4658 8.4834C17.2725 8.29004 17.1758 8.02637 17.1758 7.69238C17.1758 7.28809 17.2666 6.86621 17.4482 6.42676C17.6299 5.9873 17.8994 5.58887 18.2568 5.23145C18.6201 4.87402 19.0771 4.58691 19.6279 4.37012C20.1846 4.14746 20.835 4.03613 21.5791 4.03613C22.4756 4.03613 23.2402 4.17676 23.873 4.45801C24.2832 4.64551 24.6436 4.90332 24.9541 5.23145C25.2646 5.55957 25.5049 5.94043 25.6748 6.37402C25.8506 6.80176 25.9385 7.24707 25.9385 7.70996C25.9385 8.43652 25.7568 9.09863 25.3936 9.69629C25.0361 10.2881 24.6699 10.7539 24.2949 11.0938C23.9199 11.4277 23.29 11.9551 22.4053 12.6758C21.5264 13.3965 20.9229 13.9561 20.5947 14.3545C20.4541 14.5127 20.3105 14.7031 20.1641 14.9258Z" fill="#333333"/>
</svg>
