<svg width="139" height="42" viewBox="0 0 139 42" fill="none" xmlns="http://www.w3.org/2000/svg">
<path d="M5.82812 12.0938H11.875C13.4479 12.0938 14.7969 12.2396 15.9219 12.5312C17.0469 12.8229 18.0677 13.3698 18.9844 14.1719C21.3698 16.2135 22.5625 19.3177 22.5625 23.4844C22.5625 24.8594 22.4427 26.1146 22.2031 27.25C21.9635 28.3854 21.5938 29.4115 21.0938 30.3281C20.5938 31.2344 19.9531 32.0469 19.1719 32.7656C18.5573 33.3177 17.8854 33.7604 17.1562 34.0938C16.4271 34.4271 15.6406 34.6615 14.7969 34.7969C13.9635 34.9323 13.0208 35 11.9688 35H5.92188C5.07812 35 4.44271 34.875 4.01562 34.625C3.58854 34.3646 3.30729 34.0052 3.17188 33.5469C3.04688 33.0781 2.98438 32.474 2.98438 31.7344V14.9375C2.98438 13.9375 3.20833 13.2135 3.65625 12.7656C4.10417 12.3177 4.82812 12.0938 5.82812 12.0938ZM7.625 15.7656V31.3125H11.1406C11.9115 31.3125 12.5156 31.2917 12.9531 31.25C13.3906 31.2083 13.8438 31.1042 14.3125 30.9375C14.7812 30.7708 15.1875 30.5365 15.5312 30.2344C17.0833 28.9219 17.8594 26.6615 17.8594 23.4531C17.8594 21.1927 17.5156 19.5 16.8281 18.375C16.151 17.25 15.3125 16.5365 14.3125 16.2344C13.3125 15.9219 12.1042 15.7656 10.6875 15.7656H7.625ZM41.4844 29.2031H25.4531V25.1094H41.4844V29.2031ZM41.4844 22.2656H25.4531V18.1719H41.4844V22.2656ZM48.9375 14.1406V20.6562C49.7396 19.8229 50.5573 19.1875 51.3906 18.75C52.224 18.3021 53.2552 18.0781 54.4844 18.0781C55.901 18.0781 57.1406 18.4167 58.2031 19.0938C59.276 19.7604 60.1042 20.7344 60.6875 22.0156C61.2812 23.2865 61.5781 24.7969 61.5781 26.5469C61.5781 27.8385 61.4115 29.026 61.0781 30.1094C60.7552 31.1823 60.2812 32.1146 59.6562 32.9062C59.0312 33.6979 58.2708 34.3125 57.375 34.75C56.4896 35.1771 55.5104 35.3906 54.4375 35.3906C53.7812 35.3906 53.1615 35.3125 52.5781 35.1562C52.0052 35 51.5156 34.7969 51.1094 34.5469C50.7031 34.2865 50.3542 34.0208 50.0625 33.75C49.7812 33.4792 49.4062 33.0729 48.9375 32.5312V32.9531C48.9375 33.7552 48.7448 34.3646 48.3594 34.7812C47.974 35.1875 47.4844 35.3906 46.8906 35.3906C46.2865 35.3906 45.8021 35.1875 45.4375 34.7812C45.0833 34.3646 44.9062 33.7552 44.9062 32.9531V14.3281C44.9062 13.4635 45.0781 12.8125 45.4219 12.375C45.776 11.9271 46.2656 11.7031 46.8906 11.7031C47.5469 11.7031 48.0521 11.9167 48.4062 12.3438C48.7604 12.7604 48.9375 13.3594 48.9375 14.1406ZM49.1406 26.8125C49.1406 28.5104 49.526 29.8177 50.2969 30.7344C51.0781 31.6406 52.099 32.0938 53.3594 32.0938C54.4323 32.0938 55.3542 31.6302 56.125 30.7031C56.9062 29.7656 57.2969 28.4271 57.2969 26.6875C57.2969 25.5625 57.1354 24.5938 56.8125 23.7812C56.4896 22.9688 56.0312 22.3438 55.4375 21.9062C54.8438 21.4583 54.151 21.2344 53.3594 21.2344C52.5469 21.2344 51.8229 21.4583 51.1875 21.9062C50.5521 22.3438 50.0521 22.9844 49.6875 23.8281C49.3229 24.6615 49.1406 25.6562 49.1406 26.8125ZM78.6094 28.5625H73.6719C72.9219 28.5625 72.349 28.3906 71.9531 28.0469C71.5677 27.6927 71.375 27.2396 71.375 26.6875C71.375 26.125 71.5625 25.6719 71.9375 25.3281C72.3229 24.974 72.901 24.7969 73.6719 24.7969H78.6094C79.3802 24.7969 79.9531 24.974 80.3281 25.3281C80.7135 25.6719 80.9062 26.125 80.9062 26.6875C80.9062 27.2396 80.7188 27.6927 80.3438 28.0469C79.9688 28.3906 79.3906 28.5625 78.6094 28.5625ZM92.6562 33.0156V30.1094H84.8125C83.8229 30.1094 83.0781 29.8854 82.5781 29.4375C82.0885 28.9896 81.8438 28.3802 81.8438 27.6094C81.8438 27.4115 81.8802 27.2135 81.9531 27.0156C82.026 26.8073 82.1354 26.5938 82.2812 26.375C82.4271 26.1458 82.5781 25.9271 82.7344 25.7188C82.8906 25.5104 83.0833 25.2552 83.3125 24.9531L91.5938 13.875C92.1354 13.1458 92.5781 12.6198 92.9219 12.2969C93.276 11.9635 93.6979 11.7969 94.1875 11.7969C95.7708 11.7969 96.5625 12.7031 96.5625 14.5156V26.6094H97.2344C98.0365 26.6094 98.6771 26.7188 99.1562 26.9375C99.6458 27.1562 99.8906 27.6354 99.8906 28.375C99.8906 28.9792 99.6927 29.4219 99.2969 29.7031C98.901 29.974 98.3073 30.1094 97.5156 30.1094H96.5625V33.0156C96.5625 33.8177 96.3854 34.4167 96.0312 34.8125C95.6771 35.1979 95.2031 35.3906 94.6094 35.3906C94.026 35.3906 93.5521 35.1927 93.1875 34.7969C92.8333 34.3906 92.6562 33.7969 92.6562 33.0156ZM85.9375 26.6094H92.6562V17.5312L85.9375 26.6094ZM113.469 32.9844C112.438 33.7865 111.438 34.3906 110.469 34.7969C109.51 35.1927 108.432 35.3906 107.234 35.3906C106.141 35.3906 105.177 35.1771 104.344 34.75C103.521 34.3125 102.885 33.724 102.438 32.9844C101.99 32.2448 101.766 31.4427 101.766 30.5781C101.766 29.4115 102.135 28.4167 102.875 27.5938C103.615 26.7708 104.63 26.2188 105.922 25.9375C106.193 25.875 106.865 25.7344 107.938 25.5156C109.01 25.2969 109.927 25.099 110.688 24.9219C111.458 24.7344 112.292 24.5104 113.188 24.25C113.135 23.125 112.906 22.3021 112.5 21.7812C112.104 21.25 111.276 20.9844 110.016 20.9844C108.932 20.9844 108.115 21.1354 107.562 21.4375C107.021 21.7396 106.552 22.1927 106.156 22.7969C105.771 23.401 105.495 23.8021 105.328 24C105.172 24.1875 104.828 24.2812 104.297 24.2812C103.818 24.2812 103.401 24.1302 103.047 23.8281C102.703 23.5156 102.531 23.1198 102.531 22.6406C102.531 21.8906 102.797 21.1615 103.328 20.4531C103.859 19.7448 104.688 19.1615 105.812 18.7031C106.938 18.2448 108.339 18.0156 110.016 18.0156C111.891 18.0156 113.365 18.2396 114.438 18.6875C115.51 19.125 116.266 19.8229 116.703 20.7812C117.151 21.7396 117.375 23.0104 117.375 24.5938C117.375 25.5938 117.37 26.4427 117.359 27.1406C117.359 27.8385 117.354 28.6146 117.344 29.4688C117.344 30.2708 117.474 31.1094 117.734 31.9844C118.005 32.849 118.141 33.4062 118.141 33.6562C118.141 34.0938 117.932 34.4948 117.516 34.8594C117.109 35.2135 116.646 35.3906 116.125 35.3906C115.688 35.3906 115.255 35.1875 114.828 34.7812C114.401 34.3646 113.948 33.7656 113.469 32.9844ZM113.188 26.8125C112.562 27.0417 111.651 27.2865 110.453 27.5469C109.266 27.7969 108.443 27.9844 107.984 28.1094C107.526 28.224 107.089 28.4583 106.672 28.8125C106.255 29.1562 106.047 29.6406 106.047 30.2656C106.047 30.9115 106.292 31.4635 106.781 31.9219C107.271 32.3698 107.911 32.5938 108.703 32.5938C109.547 32.5938 110.323 32.4115 111.031 32.0469C111.75 31.6719 112.276 31.1927 112.609 30.6094C112.995 29.9635 113.188 28.901 113.188 27.4219V26.8125ZM137.016 30.1094C137.016 30.6406 136.854 31.2083 136.531 31.8125C136.219 32.4167 135.734 32.9948 135.078 33.5469C134.432 34.0885 133.615 34.526 132.625 34.8594C131.635 35.1927 130.521 35.3594 129.281 35.3594C126.646 35.3594 124.589 34.5938 123.109 33.0625C121.63 31.5208 120.891 29.4583 120.891 26.875C120.891 25.125 121.229 23.5781 121.906 22.2344C122.583 20.8906 123.562 19.8542 124.844 19.125C126.125 18.3854 127.656 18.0156 129.438 18.0156C130.542 18.0156 131.552 18.1771 132.469 18.5C133.396 18.8229 134.177 19.2396 134.812 19.75C135.458 20.2604 135.948 20.8073 136.281 21.3906C136.625 21.9635 136.797 22.5 136.797 23C136.797 23.5104 136.604 23.9427 136.219 24.2969C135.844 24.651 135.385 24.8281 134.844 24.8281C134.49 24.8281 134.193 24.7396 133.953 24.5625C133.724 24.375 133.464 24.0781 133.172 23.6719C132.651 22.8802 132.104 22.2865 131.531 21.8906C130.969 21.4948 130.25 21.2969 129.375 21.2969C128.115 21.2969 127.099 21.7917 126.328 22.7812C125.557 23.7604 125.172 25.1042 125.172 26.8125C125.172 27.6146 125.271 28.3542 125.469 29.0312C125.667 29.6979 125.953 30.2708 126.328 30.75C126.703 31.2188 127.156 31.5781 127.688 31.8281C128.219 32.0677 128.802 32.1875 129.438 32.1875C130.292 32.1875 131.021 31.9896 131.625 31.5938C132.24 31.1979 132.781 30.5938 133.25 29.7812C133.51 29.3021 133.792 28.9271 134.094 28.6562C134.396 28.3854 134.766 28.25 135.203 28.25C135.724 28.25 136.156 28.4479 136.5 28.8438C136.844 29.2396 137.016 29.6615 137.016 30.1094Z" fill="#333333"/>
<path d="M63.1641 14.9258H67.752C68.209 14.9258 68.5576 15.0195 68.7979 15.207C69.0381 15.3945 69.1582 15.6494 69.1582 15.9717C69.1582 16.2588 69.0615 16.502 68.8682 16.7012C68.6807 16.9004 68.3936 17 68.0068 17H61.5381C61.0986 17 60.7559 16.8799 60.5098 16.6396C60.2637 16.3936 60.1406 16.1064 60.1406 15.7783C60.1406 15.5674 60.2197 15.2891 60.3779 14.9434C60.5361 14.5918 60.709 14.3164 60.8965 14.1172C61.6758 13.3086 62.3789 12.6172 63.0059 12.043C63.6328 11.4629 64.0811 11.082 64.3506 10.9004C64.8311 10.5605 65.2295 10.2207 65.5459 9.88086C65.8682 9.53516 66.1113 9.18359 66.2754 8.82617C66.4453 8.46289 66.5303 8.1084 66.5303 7.7627C66.5303 7.3877 66.4395 7.05371 66.2578 6.76074C66.082 6.46191 65.8389 6.23047 65.5283 6.06641C65.2236 5.90234 64.8896 5.82031 64.5264 5.82031C63.7588 5.82031 63.1553 6.15723 62.7158 6.83105C62.6572 6.91895 62.5576 7.15918 62.417 7.55176C62.2822 7.94434 62.127 8.24609 61.9512 8.45703C61.7812 8.66797 61.5293 8.77344 61.1953 8.77344C60.9023 8.77344 60.6592 8.67676 60.4658 8.4834C60.2725 8.29004 60.1758 8.02637 60.1758 7.69238C60.1758 7.28809 60.2666 6.86621 60.4482 6.42676C60.6299 5.9873 60.8994 5.58887 61.2568 5.23145C61.6201 4.87402 62.0771 4.58691 62.6279 4.37012C63.1846 4.14746 63.835 4.03613 64.5791 4.03613C65.4756 4.03613 66.2402 4.17676 66.873 4.45801C67.2832 4.64551 67.6436 4.90332 67.9541 5.23145C68.2646 5.55957 68.5049 5.94043 68.6748 6.37402C68.8506 6.80176 68.9385 7.24707 68.9385 7.70996C68.9385 8.43652 68.7568 9.09863 68.3936 9.69629C68.0361 10.2881 67.6699 10.7539 67.2949 11.0938C66.9199 11.4277 66.29 11.9551 65.4053 12.6758C64.5264 13.3965 63.9229 13.9561 63.5947 14.3545C63.4541 14.5127 63.3105 14.7031 63.1641 14.9258Z" fill="#333333"/>
</svg>
