<svg width="30" height="14" viewBox="0 0 30 14" fill="none" xmlns="http://www.w3.org/2000/svg">
<path d="M5.97656 9.05469C5.97656 9.49609 5.86914 9.875 5.6543 10.1914C5.43945 10.5039 5.12109 10.7422 4.69922 10.9062C4.28125 11.0664 3.77148 11.1465 3.16992 11.1465C2.5957 11.1465 2.10352 11.0586 1.69336 10.8828C1.2832 10.707 0.980469 10.4883 0.785156 10.2266C0.589844 9.96094 0.492188 9.69531 0.492188 9.42969C0.492188 9.25391 0.554688 9.10352 0.679688 8.97852C0.804688 8.85352 0.962891 8.79102 1.1543 8.79102C1.32227 8.79102 1.45117 8.83203 1.54102 8.91406C1.63086 8.99609 1.7168 9.11133 1.79883 9.25977C1.96289 9.54492 2.1582 9.75781 2.38477 9.89844C2.61523 10.0391 2.92773 10.1094 3.32227 10.1094C3.64258 10.1094 3.9043 10.0391 4.10742 9.89844C4.31445 9.75391 4.41797 9.58984 4.41797 9.40625C4.41797 9.125 4.31055 8.91992 4.0957 8.79102C3.88477 8.66211 3.53516 8.53906 3.04688 8.42188C2.49609 8.28516 2.04688 8.14258 1.69922 7.99414C1.35547 7.8418 1.08008 7.64258 0.873047 7.39648C0.666016 7.15039 0.5625 6.84766 0.5625 6.48828C0.5625 6.16797 0.658203 5.86523 0.849609 5.58008C1.04102 5.29492 1.32227 5.06836 1.69336 4.90039C2.06836 4.72852 2.51953 4.64258 3.04688 4.64258C3.46094 4.64258 3.83203 4.68555 4.16016 4.77148C4.49219 4.85742 4.76758 4.97266 4.98633 5.11719C5.20898 5.26172 5.37695 5.42188 5.49023 5.59766C5.60742 5.77344 5.66602 5.94531 5.66602 6.11328C5.66602 6.29688 5.60352 6.44727 5.47852 6.56445C5.35742 6.68164 5.18359 6.74023 4.95703 6.74023C4.79297 6.74023 4.65234 6.69336 4.53516 6.59961C4.42188 6.50586 4.29102 6.36523 4.14258 6.17773C4.02148 6.02148 3.87891 5.89648 3.71484 5.80273C3.55078 5.70898 3.32812 5.66211 3.04688 5.66211C2.75781 5.66211 2.51758 5.72461 2.32617 5.84961C2.13477 5.9707 2.03906 6.12305 2.03906 6.30664C2.03906 6.47461 2.10938 6.61328 2.25 6.72266C2.39062 6.82812 2.58008 6.91602 2.81836 6.98633C3.05664 7.05664 3.38477 7.14258 3.80273 7.24414C4.29883 7.36523 4.70312 7.50977 5.01562 7.67773C5.33203 7.8457 5.57031 8.04492 5.73047 8.27539C5.89453 8.50195 5.97656 8.76172 5.97656 9.05469ZM8.92969 5.55078V10.1738C8.92969 10.4941 8.85352 10.7363 8.70117 10.9004C8.54883 11.0645 8.35547 11.1465 8.12109 11.1465C7.88672 11.1465 7.69531 11.0625 7.54688 10.8945C7.40234 10.7266 7.33008 10.4863 7.33008 10.1738V5.59766C7.33008 5.28125 7.40234 5.04297 7.54688 4.88281C7.69531 4.72266 7.88672 4.64258 8.12109 4.64258C8.35547 4.64258 8.54883 4.72266 8.70117 4.88281C8.85352 5.04297 8.92969 5.26562 8.92969 5.55078ZM8.13867 3.89844C7.91602 3.89844 7.72461 3.83008 7.56445 3.69336C7.4082 3.55664 7.33008 3.36328 7.33008 3.11328C7.33008 2.88672 7.41016 2.70117 7.57031 2.55664C7.73438 2.4082 7.92383 2.33398 8.13867 2.33398C8.3457 2.33398 8.5293 2.40039 8.68945 2.5332C8.84961 2.66602 8.92969 2.85938 8.92969 3.11328C8.92969 3.35938 8.85156 3.55273 8.69531 3.69336C8.53906 3.83008 8.35352 3.89844 8.13867 3.89844ZM12.041 5.52734V5.7207C12.3223 5.34961 12.6289 5.07812 12.9609 4.90625C13.2969 4.73047 13.6816 4.64258 14.1152 4.64258C14.5371 4.64258 14.9141 4.73438 15.2461 4.91797C15.5781 5.10156 15.8262 5.36133 15.9902 5.69727C16.0957 5.89258 16.1641 6.10352 16.1953 6.33008C16.2266 6.55664 16.2422 6.8457 16.2422 7.19727V10.1738C16.2422 10.4941 16.168 10.7363 16.0195 10.9004C15.875 11.0645 15.6855 11.1465 15.4512 11.1465C15.2129 11.1465 15.0195 11.0625 14.8711 10.8945C14.7227 10.7266 14.6484 10.4863 14.6484 10.1738V7.50781C14.6484 6.98047 14.5742 6.57812 14.4258 6.30078C14.2812 6.01953 13.9902 5.87891 13.5527 5.87891C13.2676 5.87891 13.0078 5.96484 12.7734 6.13672C12.5391 6.30469 12.3672 6.53711 12.2578 6.83398C12.1797 7.07227 12.1406 7.51758 12.1406 8.16992V10.1738C12.1406 10.498 12.0645 10.7422 11.9121 10.9062C11.7637 11.0664 11.5703 11.1465 11.332 11.1465C11.1016 11.1465 10.9121 11.0625 10.7637 10.8945C10.6152 10.7266 10.541 10.4863 10.541 10.1738V5.55078C10.541 5.24609 10.6074 5.01953 10.7402 4.87109C10.873 4.71875 11.0547 4.64258 11.2852 4.64258C11.4258 4.64258 11.5527 4.67578 11.666 4.74219C11.7793 4.80859 11.8691 4.9082 11.9355 5.04102C12.0059 5.17383 12.041 5.33594 12.041 5.52734Z" fill="#f8f8f8"/>
<path d="M27.0003 2C27.5003 7 19.434 13.7021 19.0003 8.5C18.5 2.5 24.1667 5.83333 29 10" stroke="#f8f8f8" stroke-linecap="round"/>
</svg>
