<svg width="25" height="34" viewBox="0 0 25 34" fill="none" xmlns="http://www.w3.org/2000/svg">
<path d="M2.77344 12.4219H3.78906V11.1406C3.78906 9.80729 3.95573 8.75 4.28906 7.96875C4.63281 7.17708 5.20573 6.60417 6.00781 6.25C6.82031 5.88542 7.92969 5.70312 9.33594 5.70312C11.8255 5.70312 13.0703 6.3125 13.0703 7.53125C13.0703 7.92708 12.9401 8.26562 12.6797 8.54688C12.4193 8.82812 12.112 8.96875 11.7578 8.96875C11.5911 8.96875 11.3047 8.9375 10.8984 8.875C10.4922 8.8125 10.1484 8.78125 9.86719 8.78125C9.09635 8.78125 8.60156 9.01042 8.38281 9.46875C8.16406 9.91667 8.05469 10.5625 8.05469 11.4062V12.4219H9.10156C10.7266 12.4219 11.5391 12.9115 11.5391 13.8906C11.5391 14.5885 11.3203 15.0312 10.8828 15.2188C10.4557 15.4062 9.86198 15.5 9.10156 15.5H8.05469V26.7969C8.05469 27.6406 7.85156 28.2865 7.44531 28.7344C7.04948 29.1719 6.53385 29.3906 5.89844 29.3906C5.29427 29.3906 4.78906 29.1719 4.38281 28.7344C3.98698 28.2865 3.78906 27.6406 3.78906 26.7969V15.5H2.61719C1.98177 15.5 1.49219 15.3594 1.14844 15.0781C0.804688 14.7865 0.632812 14.4115 0.632812 13.9531C0.632812 12.9323 1.34635 12.4219 2.77344 12.4219ZM20.1602 27.9688L17.8398 24.5586L15.4609 27.9688C15.1172 28.4453 14.8242 28.7852 14.582 28.9883C14.3477 29.1914 14.0469 29.293 13.6797 29.293C13.2734 29.293 12.9258 29.168 12.6367 28.918C12.3555 28.6602 12.2148 28.3672 12.2148 28.0391C12.2148 27.7031 12.4336 27.2227 12.8711 26.5977L15.7656 22.4492L13.1992 18.9922C12.7539 18.4219 12.5312 17.9258 12.5312 17.5039C12.5312 17.1758 12.6641 16.8906 12.9297 16.6484C13.1953 16.4062 13.543 16.2852 13.9727 16.2852C14.3477 16.2852 14.6562 16.3906 14.8984 16.6016C15.1484 16.8125 15.4375 17.1445 15.7656 17.5977L17.8398 20.4336L19.8555 17.5977C20.1914 17.1289 20.4805 16.793 20.7227 16.5898C20.9727 16.3867 21.2812 16.2852 21.6484 16.2852C22.0703 16.2852 22.418 16.4062 22.6914 16.6484C22.9727 16.8828 23.1133 17.168 23.1133 17.5039C23.1133 17.7461 23.0547 17.9805 22.9375 18.207C22.8281 18.4258 22.6562 18.6875 22.4219 18.9922L19.8555 22.4492L22.75 26.5977C23.2031 27.2461 23.4297 27.7344 23.4297 28.0625C23.4297 28.3984 23.2891 28.6875 23.0078 28.9297C22.7266 29.1719 22.3789 29.293 21.9648 29.293C21.5977 29.293 21.2852 29.1875 21.0273 28.9766C20.7773 28.7656 20.4883 28.4297 20.1602 27.9688Z" fill="#F8F8F8"/>
</svg>
