<svg width="22" height="34" viewBox="0 0 22 34" fill="none" xmlns="http://www.w3.org/2000/svg">
<path d="M10.3438 16.7188C11.0833 17.1771 11.6615 17.6927 12.0781 18.2656C12.4948 18.8281 12.7865 19.5521 12.9531 20.4375C13.1198 21.3125 13.2031 22.4375 13.2031 23.8125C13.2031 24.8438 13.224 25.6042 13.2656 26.0938C13.3177 26.5833 13.4115 26.9531 13.5469 27.2031C13.6927 27.4635 13.8646 27.6302 14.0625 27.7031C14.2604 27.7865 14.599 27.8646 15.0781 27.9375C15.474 27.9896 15.8021 28.1823 16.0625 28.5156C16.3229 28.849 16.4531 29.2865 16.4531 29.8281C16.4531 31.0885 15.6875 31.7188 14.1562 31.7188C13.2083 31.7188 12.3594 31.5208 11.6094 31.125C10.8698 30.7292 10.2969 30.1667 9.89062 29.4375C9.48438 28.7188 9.27604 27.8906 9.26562 26.9531C9.23438 25.3698 9.20312 24.099 9.17188 23.1406C9.14062 22.1823 9.09375 21.5625 9.03125 21.2812C8.875 20.5833 8.64062 20.0573 8.32812 19.7031C8.02604 19.349 7.625 19.0208 7.125 18.7188C6.63542 18.4062 6.28646 18.1302 6.07812 17.8906C5.86979 17.6406 5.76562 17.25 5.76562 16.7188C5.76562 15.9479 6.06771 15.3698 6.67188 14.9844C7.42188 14.5156 7.95312 14.1198 8.26562 13.7969C8.58854 13.4635 8.8125 13.0417 8.9375 12.5312C9.07292 12.0104 9.15104 11.4479 9.17188 10.8438C9.19271 10.2292 9.22396 8.76042 9.26562 6.4375C9.29688 5 9.75 3.85417 10.625 3C11.5104 2.13542 12.6875 1.70312 14.1562 1.70312C15.6875 1.70312 16.4531 2.32292 16.4531 3.5625C16.4531 4.125 16.3229 4.56771 16.0625 4.89062C15.8125 5.21354 15.4844 5.40104 15.0781 5.45312C14.474 5.53646 14.0521 5.66146 13.8125 5.82812C13.5729 5.99479 13.4167 6.31771 13.3438 6.79688C13.2708 7.27604 13.224 8.20312 13.2031 9.57812C13.1823 10.9219 13.099 12.026 12.9531 12.8906C12.8177 13.7448 12.5417 14.474 12.125 15.0781C11.7188 15.6823 11.125 16.2292 10.3438 16.7188Z" fill="#F8F8F8"/>
</svg>
