<svg width="273" height="46" viewBox="0 0 273 46" fill="none" xmlns="http://www.w3.org/2000/svg">
<path d="M74.2129 35.4531L70.7324 30.3379L67.1641 35.4531C66.6484 36.168 66.209 36.6777 65.8457 36.9824C65.4941 37.2871 65.043 37.4395 64.4922 37.4395C63.8828 37.4395 63.3613 37.252 62.9277 36.877C62.5059 36.4902 62.2949 36.0508 62.2949 35.5586C62.2949 35.0547 62.623 34.334 63.2793 33.3965L67.6211 27.1738L63.7715 21.9883C63.1035 21.1328 62.7695 20.3887 62.7695 19.7559C62.7695 19.2637 62.9688 18.8359 63.3672 18.4727C63.7656 18.1094 64.2871 17.9277 64.9316 17.9277C65.4941 17.9277 65.957 18.0859 66.3203 18.4023C66.6953 18.7188 67.1289 19.2168 67.6211 19.8965L70.7324 24.1504L73.7559 19.8965C74.2598 19.1934 74.6934 18.6895 75.0566 18.3848C75.4316 18.0801 75.8945 17.9277 76.4453 17.9277C77.0781 17.9277 77.5996 18.1094 78.0098 18.4727C78.4316 18.8242 78.6426 19.252 78.6426 19.7559C78.6426 20.1191 78.5547 20.4707 78.3789 20.8105C78.2148 21.1387 77.957 21.5312 77.6055 21.9883L73.7559 27.1738L78.0977 33.3965C78.7773 34.3691 79.1172 35.1016 79.1172 35.5938C79.1172 36.0977 78.9062 36.5312 78.4844 36.8945C78.0625 37.2578 77.541 37.4395 76.9199 37.4395C76.3691 37.4395 75.9004 37.2812 75.5137 36.9648C75.1387 36.6484 74.7051 36.1445 74.2129 35.4531ZM108.613 30.4785H90.5781V25.873H108.613V30.4785ZM108.613 22.6738H90.5781V18.0684H108.613V22.6738ZM118.123 32.8516H127.299C128.213 32.8516 128.91 33.0391 129.391 33.4141C129.871 33.7891 130.111 34.2988 130.111 34.9434C130.111 35.5176 129.918 36.0039 129.531 36.4023C129.156 36.8008 128.582 37 127.809 37H114.871C113.992 37 113.307 36.7598 112.814 36.2793C112.322 35.7871 112.076 35.2129 112.076 34.5566C112.076 34.1348 112.234 33.5781 112.551 32.8867C112.867 32.1836 113.213 31.6328 113.588 31.2344C115.146 29.6172 116.553 28.2344 117.807 27.0859C119.061 25.9258 119.957 25.1641 120.496 24.8008C121.457 24.1211 122.254 23.4414 122.887 22.7617C123.531 22.0703 124.018 21.3672 124.346 20.6523C124.686 19.9258 124.855 19.2168 124.855 18.5254C124.855 17.7754 124.674 17.1074 124.311 16.5215C123.959 15.9238 123.473 15.4609 122.852 15.1328C122.242 14.8047 121.574 14.6406 120.848 14.6406C119.312 14.6406 118.105 15.3145 117.227 16.6621C117.109 16.8379 116.91 17.3184 116.629 18.1035C116.359 18.8887 116.049 19.4922 115.697 19.9141C115.357 20.3359 114.854 20.5469 114.186 20.5469C113.6 20.5469 113.113 20.3535 112.727 19.9668C112.34 19.5801 112.146 19.0527 112.146 18.3848C112.146 17.5762 112.328 16.7324 112.691 15.8535C113.055 14.9746 113.594 14.1777 114.309 13.4629C115.035 12.748 115.949 12.1738 117.051 11.7402C118.164 11.2949 119.465 11.0723 120.953 11.0723C122.746 11.0723 124.275 11.3535 125.541 11.916C126.361 12.291 127.082 12.8066 127.703 13.4629C128.324 14.1191 128.805 14.8809 129.145 15.748C129.496 16.6035 129.672 17.4941 129.672 18.4199C129.672 19.873 129.309 21.1973 128.582 22.3926C127.867 23.5762 127.135 24.5078 126.385 25.1875C125.635 25.8555 124.375 26.9102 122.605 28.3516C120.848 29.793 119.641 30.9121 118.984 31.709C118.703 32.0254 118.416 32.4062 118.123 32.8516ZM153.385 35.4531L149.904 30.3379L146.336 35.4531C145.82 36.168 145.381 36.6777 145.018 36.9824C144.666 37.2871 144.215 37.4395 143.664 37.4395C143.055 37.4395 142.533 37.252 142.1 36.877C141.678 36.4902 141.467 36.0508 141.467 35.5586C141.467 35.0547 141.795 34.334 142.451 33.3965L146.793 27.1738L142.943 21.9883C142.275 21.1328 141.941 20.3887 141.941 19.7559C141.941 19.2637 142.141 18.8359 142.539 18.4727C142.938 18.1094 143.459 17.9277 144.104 17.9277C144.666 17.9277 145.129 18.0859 145.492 18.4023C145.867 18.7188 146.301 19.2168 146.793 19.8965L149.904 24.1504L152.928 19.8965C153.432 19.1934 153.865 18.6895 154.229 18.3848C154.604 18.0801 155.066 17.9277 155.617 17.9277C156.25 17.9277 156.771 18.1094 157.182 18.4727C157.604 18.8242 157.814 19.252 157.814 19.7559C157.814 20.1191 157.727 20.4707 157.551 20.8105C157.387 21.1387 157.129 21.5312 156.777 21.9883L152.928 27.1738L157.27 33.3965C157.949 34.3691 158.289 35.1016 158.289 35.5938C158.289 36.0977 158.078 36.5312 157.656 36.8945C157.234 37.2578 156.713 37.4395 156.092 37.4395C155.541 37.4395 155.072 37.2812 154.686 36.9648C154.311 36.6484 153.877 36.1445 153.385 35.4531ZM187.785 30.4785H169.75V25.873H187.785V30.4785ZM187.785 22.6738H169.75V18.0684H187.785V22.6738ZM199.123 21.4434C200.201 21.4434 201.127 21.127 201.9 20.4941C202.686 19.8613 203.078 18.9531 203.078 17.7695C203.078 16.8672 202.768 16.0938 202.146 15.4492C201.525 14.793 200.688 14.4648 199.633 14.4648C198.918 14.4648 198.326 14.5645 197.857 14.7637C197.4 14.9629 197.037 15.2266 196.768 15.5547C196.498 15.8828 196.24 16.3047 195.994 16.8203C195.76 17.3359 195.543 17.8223 195.344 18.2793C195.227 18.5254 195.016 18.7188 194.711 18.8594C194.406 19 194.055 19.0703 193.656 19.0703C193.188 19.0703 192.754 18.8828 192.355 18.5078C191.969 18.1211 191.775 17.6113 191.775 16.9785C191.775 16.3691 191.957 15.7305 192.32 15.0625C192.695 14.3828 193.234 13.7383 193.938 13.1289C194.652 12.5195 195.537 12.0332 196.592 11.6699C197.646 11.2949 198.824 11.1074 200.125 11.1074C201.262 11.1074 202.299 11.2656 203.236 11.582C204.174 11.8867 204.988 12.332 205.68 12.918C206.371 13.5039 206.893 14.1836 207.244 14.957C207.596 15.7305 207.771 16.5625 207.771 17.4531C207.771 18.625 207.514 19.6328 206.998 20.4766C206.494 21.3086 205.768 22.123 204.818 22.9199C205.732 23.4121 206.5 23.9746 207.121 24.6074C207.754 25.2402 208.229 25.9434 208.545 26.7168C208.861 27.4785 209.02 28.3047 209.02 29.1953C209.02 30.2617 208.803 31.293 208.369 32.2891C207.947 33.2852 207.32 34.1758 206.488 34.9609C205.656 35.7344 204.666 36.3438 203.518 36.7891C202.381 37.2227 201.121 37.4395 199.738 37.4395C198.332 37.4395 197.072 37.1875 195.959 36.6836C194.846 36.1797 193.926 35.5527 193.199 34.8027C192.484 34.041 191.939 33.2559 191.564 32.4473C191.201 31.6387 191.02 30.9707 191.02 30.4434C191.02 29.7637 191.236 29.2188 191.67 28.8086C192.115 28.3867 192.666 28.1758 193.322 28.1758C193.65 28.1758 193.967 28.2754 194.271 28.4746C194.576 28.6621 194.775 28.8906 194.869 29.1602C195.479 30.7891 196.129 32.002 196.82 32.7988C197.523 33.584 198.508 33.9766 199.773 33.9766C200.5 33.9766 201.197 33.8008 201.865 33.4492C202.545 33.0859 203.102 32.5527 203.535 31.8496C203.98 31.1465 204.203 30.332 204.203 29.4062C204.203 28.0352 203.828 26.9629 203.078 26.1895C202.328 25.4043 201.285 25.0117 199.949 25.0117C199.715 25.0117 199.352 25.0352 198.859 25.082C198.367 25.1289 198.051 25.1523 197.91 25.1523C197.266 25.1523 196.768 24.9941 196.416 24.6777C196.064 24.3496 195.889 23.8984 195.889 23.3242C195.889 22.7617 196.1 22.3105 196.521 21.9707C196.943 21.6191 197.57 21.4434 198.402 21.4434H199.123Z" fill="black"/>
<path d="M163.164 42.9258H167.752C168.209 42.9258 168.558 43.0195 168.798 43.207C169.038 43.3945 169.158 43.6494 169.158 43.9717C169.158 44.2588 169.062 44.502 168.868 44.7012C168.681 44.9004 168.394 45 168.007 45H161.538C161.099 45 160.756 44.8799 160.51 44.6396C160.264 44.3936 160.141 44.1064 160.141 43.7783C160.141 43.5674 160.22 43.2891 160.378 42.9434C160.536 42.5918 160.709 42.3164 160.896 42.1172C161.676 41.3086 162.379 40.6172 163.006 40.043C163.633 39.4629 164.081 39.082 164.351 38.9004C164.831 38.5605 165.229 38.2207 165.546 37.8809C165.868 37.5352 166.111 37.1836 166.275 36.8262C166.445 36.4629 166.53 36.1084 166.53 35.7627C166.53 35.3877 166.439 35.0537 166.258 34.7607C166.082 34.4619 165.839 34.2305 165.528 34.0664C165.224 33.9023 164.89 33.8203 164.526 33.8203C163.759 33.8203 163.155 34.1572 162.716 34.8311C162.657 34.9189 162.558 35.1592 162.417 35.5518C162.282 35.9443 162.127 36.2461 161.951 36.457C161.781 36.668 161.529 36.7734 161.195 36.7734C160.902 36.7734 160.659 36.6768 160.466 36.4834C160.272 36.29 160.176 36.0264 160.176 35.6924C160.176 35.2881 160.267 34.8662 160.448 34.4268C160.63 33.9873 160.899 33.5889 161.257 33.2314C161.62 32.874 162.077 32.5869 162.628 32.3701C163.185 32.1475 163.835 32.0361 164.579 32.0361C165.476 32.0361 166.24 32.1768 166.873 32.458C167.283 32.6455 167.644 32.9033 167.954 33.2314C168.265 33.5596 168.505 33.9404 168.675 34.374C168.851 34.8018 168.938 35.2471 168.938 35.71C168.938 36.4365 168.757 37.0986 168.394 37.6963C168.036 38.2881 167.67 38.7539 167.295 39.0938C166.92 39.4277 166.29 39.9551 165.405 40.6758C164.526 41.3965 163.923 41.9561 163.595 42.3545C163.454 42.5127 163.311 42.7031 163.164 42.9258Z" fill="#333333"/>
<path d="M84.2275 43.7959V35.7979C82.7393 36.9404 81.7373 37.5117 81.2217 37.5117C80.9756 37.5117 80.7559 37.415 80.5625 37.2217C80.375 37.0225 80.2812 36.7939 80.2812 36.5361C80.2812 36.2373 80.375 36.0176 80.5625 35.877C80.75 35.7363 81.0811 35.5547 81.5557 35.332C82.2646 34.998 82.8301 34.6465 83.252 34.2773C83.6797 33.9082 84.0576 33.4951 84.3857 33.0381C84.7139 32.5811 84.9277 32.2998 85.0273 32.1943C85.127 32.0889 85.3145 32.0361 85.5898 32.0361C85.9004 32.0361 86.1494 32.1562 86.3369 32.3965C86.5244 32.6367 86.6182 32.9678 86.6182 33.3896V43.4531C86.6182 44.6309 86.2168 45.2197 85.4141 45.2197C85.0566 45.2197 84.7695 45.0996 84.5527 44.8594C84.3359 44.6191 84.2275 44.2646 84.2275 43.7959Z" fill="#333333"/>
</svg>
