<svg id="visual" viewBox="0 0 900 450" width="900" height="450" xmlns="http://www.w3.org/2000/svg" xmlns:xlink="http://www.w3.org/1999/xlink" version="1.1">
<path d="M0 309L30 302.8C60 296.7 120 284.3 180 276.8C240 269.3 300 266.7 360 272.5C420 278.3 480 292.7 540 297.8C600 303 660 299 720 303.8C780 308.7 840 322.3 870 329.2L900 336L900 451L870 451C840 451 780 451 720 451C660 451 600 451 540 451C480 451 420 451 360 451C300 451 240 451 180 451C120 451 60 451 30 451L0 451Z" fill="#6600FF"></path>
<path d="M0 355L30 354.7C60 354.3 120 353.7 180 342.2C240 330.7 300 308.3 360 305.7C420 303 480 320 540 318.5C600 317 660 297 720 291.7C780 286.3 840 295.7 870 300.3L900 305L900 451L870 451C840 451 780 451 720 451C660 451 600 451 540 451C480 451 420 451 360 451C300 451 240 451 180 451C120 451 60 451 30 451L0 451Z" fill="#282FCF"></path>
<path d="M0 359L30 360.8C60 362.7 120 366.3 180 363.7C240 361 300 352 360 354.7C420 357.3 480 371.7 540 373.3C600 375 660 364 720 362.5C780 361 840 369 870 373L900 377L900 451L870 451C840 451 780 451 720 451C660 451 600 451 540 451C480 451 420 451 360 451C300 451 240 451 180 451C120 451 60 451 30 451L0 451Z" fill="#003299"></path>
<path d="M0 361L30 367C60 373 120 385 180 388.2C240 391.3 300 385.7 360 377.2C420 368.7 480 357.3 540 353.2C600 349 660 352 720 354.3C780 356.7 840 358.3 870 359.2L900 360L900 451L870 451C840 451 780 451 720 451C660 451 600 451 540 451C480 451 420 451 360 451C300 451 240 451 180 451C120 451 60 451 30 451L0 451Z" fill="#00275D"></path>
<path d="M0 369L30 375.3C60 381.7 120 394.3 180 396.7C240 399 300 391 360 392C420 393 480 403 540 406.3C600 409.7 660 406.3 720 405.5C780 404.7 840 406.3 870 407.2L900 408L900 451L870 451C840 451 780 451 720 451C660 451 600 451 540 451C480 451 420 451 360 451C300 451 240 451 180 451C120 451 60 451 30 451L0 451Z" fill="#001220"></path>
<path d="M0 405L30 407.8C60 410.7 120 416.3 180 416.8C240 417.3 300 412.7 360 409.7C420 406.7 480 405.3 540 410.7C600 416 660 428 720 429.7C780 431.3 840 422.7 870 418.3L900 414L900 451L870 451C840 451 780 451 720 451C660 451 600 451 540 451C480 451 420 451 360 451C300 451 240 451 180 451C120 451 60 451 30 451L0 451Z" fill="#001220"></path></svg>