<svg width="64" height="64" viewBox="0 0 64 64" fill="none" xmlns="http://www.w3.org/2000/svg">
<g clip-path="url(#clip0_5_7)">
<rect x="2.5" y="2.5" width="59" height="59" rx="29.5" fill="#F8F8F8"/>
<rect x="2.5" y="2.5" width="59" height="59" rx="29.5" stroke="#F8F8F8" stroke-width="5"/>
<rect x="1.75" y="1.75" width="60.5" height="60.5" rx="30.25" stroke="#8CA8E1" stroke-width="3.5"/>
<path d="M12.4399 8.528C13.1119 8.528 13.8079 8.72 14.5279 9.104C15.2959 9.44 15.8719 9.896 16.2559 10.472L33.7519 37.4L30.1519 37.256L48.0799 10.472C48.9919 9.176 50.1679 8.528 51.6079 8.528C52.7599 8.528 53.7919 8.936 54.7039 9.752C55.6159 10.568 56.0719 11.624 56.0719 12.92V54.608C56.0719 55.856 55.6639 56.912 54.8479 57.776C54.0319 58.592 52.9519 59 51.6079 59C50.2639 59 49.1599 58.592 48.2959 57.776C47.4799 56.912 47.0719 55.856 47.0719 54.608V20.696L49.8799 21.344L35.1919 43.736C34.7599 44.264 34.2079 44.72 33.5359 45.104C32.9119 45.488 32.2639 45.656 31.5919 45.608C30.9679 45.656 30.3199 45.488 29.6479 45.104C29.0239 44.72 28.4959 44.264 28.0639 43.736L14.3119 21.992L16.1839 18.176V54.608C16.1839 55.856 15.7999 56.912 15.0319 57.776C14.2639 58.592 13.2559 59 12.0079 59C10.8079 59 9.82391 58.592 9.05591 57.776C8.28791 56.912 7.90391 55.856 7.90391 54.608V12.92C7.90391 11.72 8.33591 10.688 9.19991 9.824C10.1119 8.96 11.1919 8.528 12.4399 8.528Z" fill="#8CA8E1"/>
</g>
<defs>
<clipPath id="clip0_5_7">
<rect width="64" height="64" fill="white"/>
</clipPath>
</defs>
</svg>
