<svg width="67" height="40" viewBox="0 0 67 40" fill="none" xmlns="http://www.w3.org/2000/svg">
<path d="M9.01562 22.7188C9.75521 23.1771 10.3333 23.6927 10.75 24.2656C11.1667 24.8281 11.4583 25.5521 11.625 26.4375C11.7917 27.3125 11.875 28.4375 11.875 29.8125C11.875 30.8438 11.8958 31.6042 11.9375 32.0938C11.9896 32.5833 12.0833 32.9531 12.2188 33.2031C12.3646 33.4635 12.5365 33.6302 12.7344 33.7031C12.9323 33.7865 13.2708 33.8646 13.75 33.9375C14.1458 33.9896 14.474 34.1823 14.7344 34.5156C14.9948 34.849 15.125 35.2865 15.125 35.8281C15.125 37.0885 14.3594 37.7188 12.8281 37.7188C11.8802 37.7188 11.0312 37.5208 10.2812 37.125C9.54167 36.7292 8.96875 36.1667 8.5625 35.4375C8.15625 34.7188 7.94792 33.8906 7.9375 32.9531C7.90625 31.3698 7.875 30.099 7.84375 29.1406C7.8125 28.1823 7.76562 27.5625 7.70312 27.2812C7.54688 26.5833 7.3125 26.0573 7 25.7031C6.69792 25.349 6.29688 25.0208 5.79688 24.7188C5.30729 24.4062 4.95833 24.1302 4.75 23.8906C4.54167 23.6406 4.4375 23.25 4.4375 22.7188C4.4375 21.9479 4.73958 21.3698 5.34375 20.9844C6.09375 20.5156 6.625 20.1198 6.9375 19.7969C7.26042 19.4635 7.48438 19.0417 7.60938 18.5312C7.74479 18.0104 7.82292 17.4479 7.84375 16.8438C7.86458 16.2292 7.89583 14.7604 7.9375 12.4375C7.96875 11 8.42188 9.85417 9.29688 9C10.1823 8.13542 11.3594 7.70312 12.8281 7.70312C14.3594 7.70312 15.125 8.32292 15.125 9.5625C15.125 10.125 14.9948 10.5677 14.7344 10.8906C14.4844 11.2135 14.1562 11.401 13.75 11.4531C13.1458 11.5365 12.724 11.6615 12.4844 11.8281C12.2448 11.9948 12.0885 12.3177 12.0156 12.7969C11.9427 13.276 11.8958 14.2031 11.875 15.5781C11.8542 16.9219 11.7708 18.026 11.625 18.8906C11.4896 19.7448 11.2135 20.474 10.7969 21.0781C10.3906 21.6823 9.79688 22.2292 9.01562 22.7188ZM29.1094 28.9844V28.4375C28.599 29.0833 28.0625 29.625 27.5 30.0625C26.9375 30.5 26.3229 30.8229 25.6562 31.0312C24.9896 31.25 24.2292 31.3594 23.375 31.3594C22.3438 31.3594 21.4167 31.1458 20.5938 30.7188C19.7812 30.2917 19.151 29.7031 18.7031 28.9531C18.1719 28.0469 17.9062 26.7448 17.9062 25.0469V16.5938C17.9062 15.7396 18.099 15.1042 18.4844 14.6875C18.8698 14.2604 19.3802 14.0469 20.0156 14.0469C20.6615 14.0469 21.1823 14.2604 21.5781 14.6875C21.974 15.1146 22.1719 15.75 22.1719 16.5938V23.4219C22.1719 24.4115 22.2552 25.2448 22.4219 25.9219C22.5885 26.5885 22.8854 27.1146 23.3125 27.5C23.75 27.875 24.3385 28.0625 25.0781 28.0625C25.7969 28.0625 26.474 27.849 27.1094 27.4219C27.7448 26.9948 28.2083 26.4375 28.5 25.75C28.7396 25.1458 28.8594 23.8229 28.8594 21.7812V16.5938C28.8594 15.75 29.0573 15.1146 29.4531 14.6875C29.849 14.2604 30.3646 14.0469 31 14.0469C31.6354 14.0469 32.1458 14.2604 32.5312 14.6875C32.9167 15.1042 33.1094 15.7396 33.1094 16.5938V28.9531C33.1094 29.7656 32.9219 30.375 32.5469 30.7812C32.1823 31.1875 31.7083 31.3906 31.125 31.3906C30.5417 31.3906 30.0573 31.1823 29.6719 30.7656C29.2969 30.3385 29.1094 29.7448 29.1094 28.9844ZM57.9844 22.7188C57.4219 22.3646 56.9635 21.9948 56.6094 21.6094C56.2552 21.224 55.9635 20.7552 55.7344 20.2031C55.5052 19.651 55.3438 19 55.25 18.25C55.1562 17.4896 55.1094 16.599 55.1094 15.5781C55.1094 14.5885 55.0885 13.8333 55.0469 13.3125C55.0052 12.7812 54.9219 12.3958 54.7969 12.1562C54.6719 11.9167 54.4948 11.7552 54.2656 11.6719C54.0469 11.5781 53.7083 11.5052 53.25 11.4531C52.8646 11.401 52.5365 11.2135 52.2656 10.8906C52.0052 10.5677 51.875 10.125 51.875 9.5625C51.875 8.32292 52.6302 7.70312 54.1406 7.70312C55.1094 7.70312 55.9583 7.90104 56.6875 8.29688C57.4271 8.68229 58.0052 9.23958 58.4219 9.96875C58.849 10.6875 59.0677 11.5104 59.0781 12.4375C59.1406 15.8958 59.2135 17.7969 59.2969 18.1406C59.4635 18.8281 59.7083 19.3542 60.0312 19.7188C60.3542 20.0729 60.7448 20.3906 61.2031 20.6719C61.6615 20.9427 62 21.2135 62.2188 21.4844C62.4479 21.7552 62.5625 22.1667 62.5625 22.7188C62.5625 23.5 62.2656 24.0729 61.6719 24.4375C60.9427 24.8854 60.4115 25.2812 60.0781 25.625C59.7552 25.9583 59.526 26.3802 59.3906 26.8906C59.2656 27.3906 59.1875 28.1458 59.1562 29.1562C59.1354 30.1667 59.1094 31.4323 59.0781 32.9531C59.0469 34.3906 58.5833 35.5417 57.6875 36.4062C56.8021 37.2812 55.6198 37.7188 54.1406 37.7188C53.4115 37.7188 52.849 37.5573 52.4531 37.2344C52.0677 36.9115 51.875 36.4427 51.875 35.8281C51.875 35.4844 51.9375 35.1667 52.0625 34.875C52.1875 34.5938 52.349 34.375 52.5469 34.2188C52.7552 34.0625 52.9896 33.9688 53.25 33.9375C53.7188 33.875 54.0677 33.7969 54.2969 33.7031C54.526 33.6094 54.6979 33.4323 54.8125 33.1719C54.9375 32.9115 55.0156 32.526 55.0469 32.0156C55.0885 31.5156 55.1094 30.7812 55.1094 29.8125C55.1302 28.375 55.2135 27.25 55.3594 26.4375C55.5052 25.625 55.7812 24.9271 56.1875 24.3438C56.5938 23.7604 57.1927 23.2188 57.9844 22.7188Z" fill="#F8F8F8"/>
<path d="M40.7539 26.8789V27.2012C41.2227 26.5827 41.7337 26.1302 42.2871 25.8438C42.847 25.5508 43.4883 25.4043 44.2109 25.4043C44.9141 25.4043 45.5423 25.5573 46.0957 25.8633C46.6491 26.1693 47.0625 26.6022 47.3359 27.1621C47.5117 27.4876 47.6257 27.8392 47.6777 28.2168C47.7298 28.5944 47.7559 29.0762 47.7559 29.6621V34.623C47.7559 35.1569 47.6322 35.5605 47.3848 35.834C47.1439 36.1074 46.8281 36.2441 46.4375 36.2441C46.0404 36.2441 45.7181 36.1042 45.4707 35.8242C45.2233 35.5443 45.0996 35.1439 45.0996 34.623V30.1797C45.0996 29.3008 44.9759 28.6302 44.7285 28.168C44.4876 27.6992 44.0026 27.4648 43.2734 27.4648C42.7982 27.4648 42.3652 27.6081 41.9746 27.8945C41.584 28.1745 41.2975 28.5618 41.1152 29.0566C40.985 29.4538 40.9199 30.196 40.9199 31.2832V34.623C40.9199 35.1634 40.793 35.5703 40.5391 35.8438C40.2917 36.1107 39.9694 36.2441 39.5723 36.2441C39.1882 36.2441 38.8724 36.1042 38.625 35.8242C38.3776 35.5443 38.2539 35.1439 38.2539 34.623V26.918C38.2539 26.4102 38.3646 26.0326 38.5859 25.7852C38.8073 25.5312 39.11 25.4043 39.4941 25.4043C39.7285 25.4043 39.9401 25.4596 40.1289 25.5703C40.3177 25.681 40.4674 25.847 40.5781 26.0684C40.6953 26.2897 40.7539 26.5599 40.7539 26.8789Z" fill="#F8F8F8"/>
</svg>
