<svg width="156" height="37" viewBox="0 0 156 37" fill="none" xmlns="http://www.w3.org/2000/svg">
<path d="M11.75 33.625L8.65625 29.0781L5.48438 33.625C5.02604 34.2604 4.63542 34.7135 4.3125 34.9844C4 35.2552 3.59896 35.3906 3.10938 35.3906C2.56771 35.3906 2.10417 35.224 1.71875 34.8906C1.34375 34.5469 1.15625 34.1562 1.15625 33.7188C1.15625 33.2708 1.44792 32.6302 2.03125 31.7969L5.89062 26.2656L2.46875 21.6562C1.875 20.8958 1.57812 20.2344 1.57812 19.6719C1.57812 19.2344 1.75521 18.8542 2.10938 18.5312C2.46354 18.2083 2.92708 18.0469 3.5 18.0469C4 18.0469 4.41146 18.1875 4.73438 18.4688C5.06771 18.75 5.45312 19.1927 5.89062 19.7969L8.65625 23.5781L11.3438 19.7969C11.7917 19.1719 12.1771 18.724 12.5 18.4531C12.8333 18.1823 13.2448 18.0469 13.7344 18.0469C14.2969 18.0469 14.7604 18.2083 15.125 18.5312C15.5 18.8438 15.6875 19.224 15.6875 19.6719C15.6875 19.9948 15.6094 20.3073 15.4531 20.6094C15.3073 20.901 15.0781 21.25 14.7656 21.6562L11.3438 26.2656L15.2031 31.7969C15.8073 32.6615 16.1094 33.3125 16.1094 33.75C16.1094 34.1979 15.9219 34.5833 15.5469 34.9062C15.1719 35.2292 14.7083 35.3906 14.1562 35.3906C13.6667 35.3906 13.25 35.25 12.9062 34.9688C12.5729 34.6875 12.1875 34.2396 11.75 33.625ZM36.3125 31.7031H32.2812V25.75H26.2969V21.6562H32.2812V15.6719H36.3125V21.6562H42.3281V25.75H36.3125V31.7031ZM49.7812 14.1406V20.6562C50.5833 19.8229 51.401 19.1875 52.2344 18.75C53.0677 18.3021 54.099 18.0781 55.3281 18.0781C56.7448 18.0781 57.9844 18.4167 59.0469 19.0938C60.1198 19.7604 60.9479 20.7344 61.5312 22.0156C62.125 23.2865 62.4219 24.7969 62.4219 26.5469C62.4219 27.8385 62.2552 29.026 61.9219 30.1094C61.599 31.1823 61.125 32.1146 60.5 32.9062C59.875 33.6979 59.1146 34.3125 58.2188 34.75C57.3333 35.1771 56.3542 35.3906 55.2812 35.3906C54.625 35.3906 54.0052 35.3125 53.4219 35.1562C52.849 35 52.3594 34.7969 51.9531 34.5469C51.5469 34.2865 51.1979 34.0208 50.9062 33.75C50.625 33.4792 50.25 33.0729 49.7812 32.5312V32.9531C49.7812 33.7552 49.5885 34.3646 49.2031 34.7812C48.8177 35.1875 48.3281 35.3906 47.7344 35.3906C47.1302 35.3906 46.6458 35.1875 46.2812 34.7812C45.9271 34.3646 45.75 33.7552 45.75 32.9531V14.3281C45.75 13.4635 45.9219 12.8125 46.2656 12.375C46.6198 11.9271 47.1094 11.7031 47.7344 11.7031C48.3906 11.7031 48.8958 11.9167 49.25 12.3438C49.6042 12.7604 49.7812 13.3594 49.7812 14.1406ZM49.9844 26.8125C49.9844 28.5104 50.3698 29.8177 51.1406 30.7344C51.9219 31.6406 52.9427 32.0938 54.2031 32.0938C55.276 32.0938 56.1979 31.6302 56.9688 30.7031C57.75 29.7656 58.1406 28.4271 58.1406 26.6875C58.1406 25.5625 57.9792 24.5938 57.6562 23.7812C57.3333 22.9688 56.875 22.3438 56.2812 21.9062C55.6875 21.4583 54.9948 21.2344 54.2031 21.2344C53.3906 21.2344 52.6667 21.4583 52.0312 21.9062C51.3958 22.3438 50.8958 22.9844 50.5312 23.8281C50.1667 24.6615 49.9844 25.6562 49.9844 26.8125ZM75.0938 33.625L72 29.0781L68.8281 33.625C68.3698 34.2604 67.9792 34.7135 67.6562 34.9844C67.3438 35.2552 66.9427 35.3906 66.4531 35.3906C65.9115 35.3906 65.4479 35.224 65.0625 34.8906C64.6875 34.5469 64.5 34.1562 64.5 33.7188C64.5 33.2708 64.7917 32.6302 65.375 31.7969L69.2344 26.2656L65.8125 21.6562C65.2188 20.8958 64.9219 20.2344 64.9219 19.6719C64.9219 19.2344 65.099 18.8542 65.4531 18.5312C65.8073 18.2083 66.2708 18.0469 66.8438 18.0469C67.3438 18.0469 67.7552 18.1875 68.0781 18.4688C68.4115 18.75 68.7969 19.1927 69.2344 19.7969L72 23.5781L74.6875 19.7969C75.1354 19.1719 75.5208 18.724 75.8438 18.4531C76.1771 18.1823 76.5885 18.0469 77.0781 18.0469C77.6406 18.0469 78.1042 18.2083 78.4688 18.5312C78.8438 18.8438 79.0312 19.224 79.0312 19.6719C79.0312 19.9948 78.9531 20.3073 78.7969 20.6094C78.651 20.901 78.4219 21.25 78.1094 21.6562L74.6875 26.2656L78.5469 31.7969C79.151 32.6615 79.4531 33.3125 79.4531 33.75C79.4531 34.1979 79.2656 34.5833 78.8906 34.9062C78.5156 35.2292 78.0521 35.3906 77.5 35.3906C77.0104 35.3906 76.5938 35.25 76.25 34.9688C75.9167 34.6875 75.5312 34.2396 75.0938 33.625ZM91.6562 31.7031H87.625V25.75H81.6406V21.6562H87.625V15.6719H91.6562V21.6562H97.6719V25.75H91.6562V31.7031ZM116.484 30.1094C116.484 30.6406 116.323 31.2083 116 31.8125C115.688 32.4167 115.203 32.9948 114.547 33.5469C113.901 34.0885 113.083 34.526 112.094 34.8594C111.104 35.1927 109.99 35.3594 108.75 35.3594C106.115 35.3594 104.057 34.5938 102.578 33.0625C101.099 31.5208 100.359 29.4583 100.359 26.875C100.359 25.125 100.698 23.5781 101.375 22.2344C102.052 20.8906 103.031 19.8542 104.312 19.125C105.594 18.3854 107.125 18.0156 108.906 18.0156C110.01 18.0156 111.021 18.1771 111.938 18.5C112.865 18.8229 113.646 19.2396 114.281 19.75C114.927 20.2604 115.417 20.8073 115.75 21.3906C116.094 21.9635 116.266 22.5 116.266 23C116.266 23.5104 116.073 23.9427 115.688 24.2969C115.312 24.651 114.854 24.8281 114.312 24.8281C113.958 24.8281 113.661 24.7396 113.422 24.5625C113.193 24.375 112.932 24.0781 112.641 23.6719C112.12 22.8802 111.573 22.2865 111 21.8906C110.438 21.4948 109.719 21.2969 108.844 21.2969C107.583 21.2969 106.568 21.7917 105.797 22.7812C105.026 23.7604 104.641 25.1042 104.641 26.8125C104.641 27.6146 104.74 28.3542 104.938 29.0312C105.135 29.6979 105.422 30.2708 105.797 30.75C106.172 31.2188 106.625 31.5781 107.156 31.8281C107.688 32.0677 108.271 32.1875 108.906 32.1875C109.76 32.1875 110.49 31.9896 111.094 31.5938C111.708 31.1979 112.25 30.5938 112.719 29.7812C112.979 29.3021 113.26 28.9271 113.562 28.6562C113.865 28.3854 114.234 28.25 114.672 28.25C115.193 28.25 115.625 28.4479 115.969 28.8438C116.312 29.2396 116.484 29.6615 116.484 30.1094ZM135.359 29.2031H119.328V25.1094H135.359V29.2031ZM135.359 22.2656H119.328V18.1719H135.359V22.2656ZM154.172 23.7656C154.172 25.474 154.068 26.9427 153.859 28.1719C153.651 29.401 153.266 30.5156 152.703 31.5156C151.995 32.7448 151.078 33.6927 149.953 34.3594C148.828 35.026 147.578 35.3594 146.203 35.3594C144.62 35.3594 143.198 34.9115 141.938 34.0156C140.688 33.1198 139.745 31.8802 139.109 30.2969C138.786 29.4323 138.547 28.4792 138.391 27.4375C138.245 26.3854 138.172 25.25 138.172 24.0312C138.172 22.4583 138.255 21.0417 138.422 19.7812C138.589 18.5208 138.849 17.4375 139.203 16.5312C139.818 15.0312 140.708 13.8906 141.875 13.1094C143.052 12.3177 144.453 11.9219 146.078 11.9219C147.151 11.9219 148.125 12.099 149 12.4531C149.875 12.7969 150.641 13.3073 151.297 13.9844C151.964 14.651 152.526 15.4792 152.984 16.4688C153.776 18.1875 154.172 20.6198 154.172 23.7656ZM149.891 23.4531C149.891 21.5469 149.776 19.9896 149.547 18.7812C149.318 17.5625 148.932 16.6458 148.391 16.0312C147.849 15.4062 147.099 15.0938 146.141 15.0938C144.766 15.0938 143.807 15.7865 143.266 17.1719C142.734 18.5573 142.469 20.6927 142.469 23.5781C142.469 25.5365 142.583 27.1406 142.812 28.3906C143.042 29.6406 143.427 30.5885 143.969 31.2344C144.51 31.8698 145.245 32.1875 146.172 32.1875C147.13 32.1875 147.88 31.8542 148.422 31.1875C148.964 30.5208 149.344 29.5677 149.562 28.3281C149.781 27.0885 149.891 25.4635 149.891 23.4531Z" fill="#333333"/>
<path d="M18.1641 14.9258H22.752C23.209 14.9258 23.5576 15.0195 23.7979 15.207C24.0381 15.3945 24.1582 15.6494 24.1582 15.9717C24.1582 16.2588 24.0615 16.502 23.8682 16.7012C23.6807 16.9004 23.3936 17 23.0068 17H16.5381C16.0986 17 15.7559 16.8799 15.5098 16.6396C15.2637 16.3936 15.1406 16.1064 15.1406 15.7783C15.1406 15.5674 15.2197 15.2891 15.3779 14.9434C15.5361 14.5918 15.709 14.3164 15.8965 14.1172C16.6758 13.3086 17.3789 12.6172 18.0059 12.043C18.6328 11.4629 19.0811 11.082 19.3506 10.9004C19.8311 10.5605 20.2295 10.2207 20.5459 9.88086C20.8682 9.53516 21.1113 9.18359 21.2754 8.82617C21.4453 8.46289 21.5303 8.1084 21.5303 7.7627C21.5303 7.3877 21.4395 7.05371 21.2578 6.76074C21.082 6.46191 20.8389 6.23047 20.5283 6.06641C20.2236 5.90234 19.8896 5.82031 19.5264 5.82031C18.7588 5.82031 18.1553 6.15723 17.7158 6.83105C17.6572 6.91895 17.5576 7.15918 17.417 7.55176C17.2822 7.94434 17.127 8.24609 16.9512 8.45703C16.7812 8.66797 16.5293 8.77344 16.1953 8.77344C15.9023 8.77344 15.6592 8.67676 15.4658 8.4834C15.2725 8.29004 15.1758 8.02637 15.1758 7.69238C15.1758 7.28809 15.2666 6.86621 15.4482 6.42676C15.6299 5.9873 15.8994 5.58887 16.2568 5.23145C16.6201 4.87402 17.0771 4.58691 17.6279 4.37012C18.1846 4.14746 18.835 4.03613 19.5791 4.03613C20.4756 4.03613 21.2402 4.17676 21.873 4.45801C22.2832 4.64551 22.6436 4.90332 22.9541 5.23145C23.2646 5.55957 23.5049 5.94043 23.6748 6.37402C23.8506 6.80176 23.9385 7.24707 23.9385 7.70996C23.9385 8.43652 23.7568 9.09863 23.3936 9.69629C23.0361 10.2881 22.6699 10.7539 22.2949 11.0938C21.9199 11.4277 21.29 11.9551 20.4053 12.6758C19.5264 13.3965 18.9229 13.9561 18.5947 14.3545C18.4541 14.5127 18.3105 14.7031 18.1641 14.9258Z" fill="#333333"/>
</svg>
