<svg width="175" height="42" viewBox="0 0 175 42" fill="none" xmlns="http://www.w3.org/2000/svg">
<path d="M13.2656 32.9844C12.2344 33.7865 11.2344 34.3906 10.2656 34.7969C9.30729 35.1927 8.22917 35.3906 7.03125 35.3906C5.9375 35.3906 4.97396 35.1771 4.14062 34.75C3.31771 34.3125 2.68229 33.724 2.23438 32.9844C1.78646 32.2448 1.5625 31.4427 1.5625 30.5781C1.5625 29.4115 1.93229 28.4167 2.67188 27.5938C3.41146 26.7708 4.42708 26.2188 5.71875 25.9375C5.98958 25.875 6.66146 25.7344 7.73438 25.5156C8.80729 25.2969 9.72396 25.099 10.4844 24.9219C11.2552 24.7344 12.0885 24.5104 12.9844 24.25C12.9323 23.125 12.7031 22.3021 12.2969 21.7812C11.901 21.25 11.0729 20.9844 9.8125 20.9844C8.72917 20.9844 7.91146 21.1354 7.35938 21.4375C6.81771 21.7396 6.34896 22.1927 5.95312 22.7969C5.56771 23.401 5.29167 23.8021 5.125 24C4.96875 24.1875 4.625 24.2812 4.09375 24.2812C3.61458 24.2812 3.19792 24.1302 2.84375 23.8281C2.5 23.5156 2.32812 23.1198 2.32812 22.6406C2.32812 21.8906 2.59375 21.1615 3.125 20.4531C3.65625 19.7448 4.48438 19.1615 5.60938 18.7031C6.73438 18.2448 8.13542 18.0156 9.8125 18.0156C11.6875 18.0156 13.1615 18.2396 14.2344 18.6875C15.3073 19.125 16.0625 19.8229 16.5 20.7812C16.9479 21.7396 17.1719 23.0104 17.1719 24.5938C17.1719 25.5938 17.1667 26.4427 17.1562 27.1406C17.1562 27.8385 17.151 28.6146 17.1406 29.4688C17.1406 30.2708 17.2708 31.1094 17.5312 31.9844C17.8021 32.849 17.9375 33.4062 17.9375 33.6562C17.9375 34.0938 17.7292 34.4948 17.3125 34.8594C16.9062 35.2135 16.4427 35.3906 15.9219 35.3906C15.4844 35.3906 15.0521 35.1875 14.625 34.7812C14.1979 34.3646 13.7448 33.7656 13.2656 32.9844ZM12.9844 26.8125C12.3594 27.0417 11.4479 27.2865 10.25 27.5469C9.0625 27.7969 8.23958 27.9844 7.78125 28.1094C7.32292 28.224 6.88542 28.4583 6.46875 28.8125C6.05208 29.1562 5.84375 29.6406 5.84375 30.2656C5.84375 30.9115 6.08854 31.4635 6.57812 31.9219C7.06771 32.3698 7.70833 32.5938 8.5 32.5938C9.34375 32.5938 10.1198 32.4115 10.8281 32.0469C11.5469 31.6719 12.0729 31.1927 12.4062 30.6094C12.7917 29.9635 12.9844 28.901 12.9844 27.4219V26.8125ZM30.7656 33.625L27.6719 29.0781L24.5 33.625C24.0417 34.2604 23.651 34.7135 23.3281 34.9844C23.0156 35.2552 22.6146 35.3906 22.125 35.3906C21.5833 35.3906 21.1198 35.224 20.7344 34.8906C20.3594 34.5469 20.1719 34.1562 20.1719 33.7188C20.1719 33.2708 20.4635 32.6302 21.0469 31.7969L24.9062 26.2656L21.4844 21.6562C20.8906 20.8958 20.5938 20.2344 20.5938 19.6719C20.5938 19.2344 20.7708 18.8542 21.125 18.5312C21.4792 18.2083 21.9427 18.0469 22.5156 18.0469C23.0156 18.0469 23.4271 18.1875 23.75 18.4688C24.0833 18.75 24.4688 19.1927 24.9062 19.7969L27.6719 23.5781L30.3594 19.7969C30.8073 19.1719 31.1927 18.724 31.5156 18.4531C31.849 18.1823 32.2604 18.0469 32.75 18.0469C33.3125 18.0469 33.776 18.2083 34.1406 18.5312C34.5156 18.8438 34.7031 19.224 34.7031 19.6719C34.7031 19.9948 34.625 20.3073 34.4688 20.6094C34.3229 20.901 34.0938 21.25 33.7812 21.6562L30.3594 26.2656L34.2188 31.7969C34.8229 32.6615 35.125 33.3125 35.125 33.75C35.125 34.1979 34.9375 34.5833 34.5625 34.9062C34.1875 35.2292 33.724 35.3906 33.1719 35.3906C32.6823 35.3906 32.2656 35.25 31.9219 34.9688C31.5885 34.6875 31.2031 34.2396 30.7656 33.625ZM55.3281 31.7031H51.2969V25.75H45.3125V21.6562H51.2969V15.6719H55.3281V21.6562H61.3438V25.75H55.3281V31.7031ZM68.7969 14.1406V20.6562C69.599 19.8229 70.4167 19.1875 71.25 18.75C72.0833 18.3021 73.1146 18.0781 74.3438 18.0781C75.7604 18.0781 77 18.4167 78.0625 19.0938C79.1354 19.7604 79.9635 20.7344 80.5469 22.0156C81.1406 23.2865 81.4375 24.7969 81.4375 26.5469C81.4375 27.8385 81.2708 29.026 80.9375 30.1094C80.6146 31.1823 80.1406 32.1146 79.5156 32.9062C78.8906 33.6979 78.1302 34.3125 77.2344 34.75C76.349 35.1771 75.3698 35.3906 74.2969 35.3906C73.6406 35.3906 73.0208 35.3125 72.4375 35.1562C71.8646 35 71.375 34.7969 70.9688 34.5469C70.5625 34.2865 70.2135 34.0208 69.9219 33.75C69.6406 33.4792 69.2656 33.0729 68.7969 32.5312V32.9531C68.7969 33.7552 68.6042 34.3646 68.2188 34.7812C67.8333 35.1875 67.3438 35.3906 66.75 35.3906C66.1458 35.3906 65.6615 35.1875 65.2969 34.7812C64.9427 34.3646 64.7656 33.7552 64.7656 32.9531V14.3281C64.7656 13.4635 64.9375 12.8125 65.2812 12.375C65.6354 11.9271 66.125 11.7031 66.75 11.7031C67.4062 11.7031 67.9115 11.9167 68.2656 12.3438C68.6198 12.7604 68.7969 13.3594 68.7969 14.1406ZM69 26.8125C69 28.5104 69.3854 29.8177 70.1562 30.7344C70.9375 31.6406 71.9583 32.0938 73.2188 32.0938C74.2917 32.0938 75.2135 31.6302 75.9844 30.7031C76.7656 29.7656 77.1562 28.4271 77.1562 26.6875C77.1562 25.5625 76.9948 24.5938 76.6719 23.7812C76.349 22.9688 75.8906 22.3438 75.2969 21.9062C74.7031 21.4583 74.0104 21.2344 73.2188 21.2344C72.4062 21.2344 71.6823 21.4583 71.0469 21.9062C70.4115 22.3438 69.9115 22.9844 69.5469 23.8281C69.1823 24.6615 69 25.6562 69 26.8125ZM94.1094 33.625L91.0156 29.0781L87.8438 33.625C87.3854 34.2604 86.9948 34.7135 86.6719 34.9844C86.3594 35.2552 85.9583 35.3906 85.4688 35.3906C84.9271 35.3906 84.4635 35.224 84.0781 34.8906C83.7031 34.5469 83.5156 34.1562 83.5156 33.7188C83.5156 33.2708 83.8073 32.6302 84.3906 31.7969L88.25 26.2656L84.8281 21.6562C84.2344 20.8958 83.9375 20.2344 83.9375 19.6719C83.9375 19.2344 84.1146 18.8542 84.4688 18.5312C84.8229 18.2083 85.2865 18.0469 85.8594 18.0469C86.3594 18.0469 86.7708 18.1875 87.0938 18.4688C87.4271 18.75 87.8125 19.1927 88.25 19.7969L91.0156 23.5781L93.7031 19.7969C94.151 19.1719 94.5365 18.724 94.8594 18.4531C95.1927 18.1823 95.6042 18.0469 96.0938 18.0469C96.6562 18.0469 97.1198 18.2083 97.4844 18.5312C97.8594 18.8438 98.0469 19.224 98.0469 19.6719C98.0469 19.9948 97.9688 20.3073 97.8125 20.6094C97.6667 20.901 97.4375 21.25 97.125 21.6562L93.7031 26.2656L97.5625 31.7969C98.1667 32.6615 98.4688 33.3125 98.4688 33.75C98.4688 34.1979 98.2812 34.5833 97.9062 34.9062C97.5312 35.2292 97.0677 35.3906 96.5156 35.3906C96.026 35.3906 95.6094 35.25 95.2656 34.9688C94.9323 34.6875 94.5469 34.2396 94.1094 33.625ZM110.672 31.7031H106.641V25.75H100.656V21.6562H106.641V15.6719H110.672V21.6562H116.688V25.75H110.672V31.7031ZM135.5 30.1094C135.5 30.6406 135.339 31.2083 135.016 31.8125C134.703 32.4167 134.219 32.9948 133.562 33.5469C132.917 34.0885 132.099 34.526 131.109 34.8594C130.12 35.1927 129.005 35.3594 127.766 35.3594C125.13 35.3594 123.073 34.5938 121.594 33.0625C120.115 31.5208 119.375 29.4583 119.375 26.875C119.375 25.125 119.714 23.5781 120.391 22.2344C121.068 20.8906 122.047 19.8542 123.328 19.125C124.609 18.3854 126.141 18.0156 127.922 18.0156C129.026 18.0156 130.036 18.1771 130.953 18.5C131.88 18.8229 132.661 19.2396 133.297 19.75C133.943 20.2604 134.432 20.8073 134.766 21.3906C135.109 21.9635 135.281 22.5 135.281 23C135.281 23.5104 135.089 23.9427 134.703 24.2969C134.328 24.651 133.87 24.8281 133.328 24.8281C132.974 24.8281 132.677 24.7396 132.438 24.5625C132.208 24.375 131.948 24.0781 131.656 23.6719C131.135 22.8802 130.589 22.2865 130.016 21.8906C129.453 21.4948 128.734 21.2969 127.859 21.2969C126.599 21.2969 125.583 21.7917 124.812 22.7812C124.042 23.7604 123.656 25.1042 123.656 26.8125C123.656 27.6146 123.755 28.3542 123.953 29.0312C124.151 29.6979 124.438 30.2708 124.812 30.75C125.188 31.2188 125.641 31.5781 126.172 31.8281C126.703 32.0677 127.286 32.1875 127.922 32.1875C128.776 32.1875 129.505 31.9896 130.109 31.5938C130.724 31.1979 131.266 30.5938 131.734 29.7812C131.995 29.3021 132.276 28.9271 132.578 28.6562C132.88 28.3854 133.25 28.25 133.688 28.25C134.208 28.25 134.641 28.4479 134.984 28.8438C135.328 29.2396 135.5 29.6615 135.5 30.1094ZM154.375 29.2031H138.344V25.1094H154.375V29.2031ZM154.375 22.2656H138.344V18.1719H154.375V22.2656ZM173.188 23.7656C173.188 25.474 173.083 26.9427 172.875 28.1719C172.667 29.401 172.281 30.5156 171.719 31.5156C171.01 32.7448 170.094 33.6927 168.969 34.3594C167.844 35.026 166.594 35.3594 165.219 35.3594C163.635 35.3594 162.214 34.9115 160.953 34.0156C159.703 33.1198 158.76 31.8802 158.125 30.2969C157.802 29.4323 157.562 28.4792 157.406 27.4375C157.26 26.3854 157.188 25.25 157.188 24.0312C157.188 22.4583 157.271 21.0417 157.438 19.7812C157.604 18.5208 157.865 17.4375 158.219 16.5312C158.833 15.0312 159.724 13.8906 160.891 13.1094C162.068 12.3177 163.469 11.9219 165.094 11.9219C166.167 11.9219 167.141 12.099 168.016 12.4531C168.891 12.7969 169.656 13.3073 170.312 13.9844C170.979 14.651 171.542 15.4792 172 16.4688C172.792 18.1875 173.188 20.6198 173.188 23.7656ZM168.906 23.4531C168.906 21.5469 168.792 19.9896 168.562 18.7812C168.333 17.5625 167.948 16.6458 167.406 16.0312C166.865 15.4062 166.115 15.0938 165.156 15.0938C163.781 15.0938 162.823 15.7865 162.281 17.1719C161.75 18.5573 161.484 20.6927 161.484 23.5781C161.484 25.5365 161.599 27.1406 161.828 28.3906C162.057 29.6406 162.443 30.5885 162.984 31.2344C163.526 31.8698 164.26 32.1875 165.188 32.1875C166.146 32.1875 166.896 31.8542 167.438 31.1875C167.979 30.5208 168.359 29.5677 168.578 28.3281C168.797 27.0885 168.906 25.4635 168.906 23.4531Z" fill="#f5f5f5"/>
<path d="M36.1641 14.9258H40.752C41.209 14.9258 41.5576 15.0195 41.7979 15.207C42.0381 15.3945 42.1582 15.6494 42.1582 15.9717C42.1582 16.2588 42.0615 16.502 41.8682 16.7012C41.6807 16.9004 41.3936 17 41.0068 17H34.5381C34.0986 17 33.7559 16.8799 33.5098 16.6396C33.2637 16.3936 33.1406 16.1064 33.1406 15.7783C33.1406 15.5674 33.2197 15.2891 33.3779 14.9434C33.5361 14.5918 33.709 14.3164 33.8965 14.1172C34.6758 13.3086 35.3789 12.6172 36.0059 12.043C36.6328 11.4629 37.0811 11.082 37.3506 10.9004C37.8311 10.5605 38.2295 10.2207 38.5459 9.88086C38.8682 9.53516 39.1113 9.18359 39.2754 8.82617C39.4453 8.46289 39.5303 8.1084 39.5303 7.7627C39.5303 7.3877 39.4395 7.05371 39.2578 6.76074C39.082 6.46191 38.8389 6.23047 38.5283 6.06641C38.2236 5.90234 37.8896 5.82031 37.5264 5.82031C36.7588 5.82031 36.1553 6.15723 35.7158 6.83105C35.6572 6.91895 35.5576 7.15918 35.417 7.55176C35.2822 7.94434 35.127 8.24609 34.9512 8.45703C34.7812 8.66797 34.5293 8.77344 34.1953 8.77344C33.9023 8.77344 33.6592 8.67676 33.4658 8.4834C33.2725 8.29004 33.1758 8.02637 33.1758 7.69238C33.1758 7.28809 33.2666 6.86621 33.4482 6.42676C33.6299 5.9873 33.8994 5.58887 34.2568 5.23145C34.6201 4.87402 35.0771 4.58691 35.6279 4.37012C36.1846 4.14746 36.835 4.03613 37.5791 4.03613C38.4756 4.03613 39.2402 4.17676 39.873 4.45801C40.2832 4.64551 40.6436 4.90332 40.9541 5.23145C41.2646 5.55957 41.5049 5.94043 41.6748 6.37402C41.8506 6.80176 41.9385 7.24707 41.9385 7.70996C41.9385 8.43652 41.7568 9.09863 41.3936 9.69629C41.0361 10.2881 40.6699 10.7539 40.2949 11.0938C39.9199 11.4277 39.29 11.9551 38.4053 12.6758C37.5264 13.3965 36.9229 13.9561 36.5947 14.3545C36.4541 14.5127 36.3105 14.7031 36.1641 14.9258Z" fill="#f5f5f5"/>
</svg>
