<svg width="18" height="12" viewBox="0 0 18 12" fill="none" xmlns="http://www.w3.org/2000/svg">
<path d="M6.87221 2.346L9.43212 8.14416C9.86989 9.13572 9.1438 10.25 8.05991 10.25H2.94009C1.8562 10.25 1.13011 9.13572 1.56788 8.14416L4.12779 2.34601C4.65416 1.15379 6.34584 1.15379 6.87221 2.346Z" stroke="#f8f8f8"/>
<path d="M10.6211 9.33008L12.543 6.52344L10.9258 4.02734C10.7734 3.78516 10.6582 3.57812 10.5801 3.40625C10.5059 3.23047 10.4688 3.0625 10.4688 2.90234C10.4688 2.73828 10.541 2.5918 10.6855 2.46289C10.834 2.33008 11.0137 2.26367 11.2246 2.26367C11.4668 2.26367 11.6543 2.33594 11.7871 2.48047C11.9238 2.62109 12.1113 2.88477 12.3496 3.27148L13.6387 5.35742L15.0156 3.27148C15.1289 3.0957 15.2246 2.94531 15.3027 2.82031C15.3848 2.69531 15.4629 2.5918 15.5371 2.50977C15.6113 2.42773 15.6934 2.36719 15.7832 2.32812C15.877 2.28516 15.9844 2.26367 16.1055 2.26367C16.3242 2.26367 16.502 2.33008 16.6387 2.46289C16.7793 2.5918 16.8496 2.74609 16.8496 2.92578C16.8496 3.1875 16.6992 3.54297 16.3984 3.99219L14.7051 6.52344L16.5273 9.33008C16.6914 9.57617 16.8105 9.78125 16.8848 9.94531C16.959 10.1055 16.9961 10.2578 16.9961 10.4023C16.9961 10.5391 16.9629 10.6641 16.8965 10.7773C16.8301 10.8906 16.7363 10.9805 16.6152 11.0469C16.4941 11.1133 16.3574 11.1465 16.2051 11.1465C16.041 11.1465 15.9023 11.1113 15.7891 11.041C15.6758 10.9746 15.584 10.8906 15.5137 10.7891C15.4434 10.6875 15.3125 10.4902 15.1211 10.1973L13.6094 7.81836L12.0039 10.2676C11.8789 10.4629 11.7891 10.5996 11.7344 10.6777C11.6836 10.7559 11.6211 10.832 11.5469 10.9062C11.4727 10.9805 11.3848 11.0391 11.2832 11.082C11.1816 11.125 11.0625 11.1465 10.9258 11.1465C10.7148 11.1465 10.5391 11.082 10.3984 10.9531C10.2617 10.8242 10.1934 10.6367 10.1934 10.3906C10.1934 10.1016 10.3359 9.74805 10.6211 9.33008Z" fill="#f8f8f8"/>
</svg>
