<svg width="28" height="34" viewBox="0 0 28 34" fill="none" xmlns="http://www.w3.org/2000/svg">
<path d="M14.498 29.4531L11.0176 24.3379L7.44922 29.4531C6.93359 30.168 6.49414 30.6777 6.13086 30.9824C5.7793 31.2871 5.32812 31.4395 4.77734 31.4395C4.16797 31.4395 3.64648 31.252 3.21289 30.877C2.79102 30.4902 2.58008 30.0508 2.58008 29.5586C2.58008 29.0547 2.9082 28.334 3.56445 27.3965L7.90625 21.1738L4.05664 15.9883C3.38867 15.1328 3.05469 14.3887 3.05469 13.7559C3.05469 13.2637 3.25391 12.8359 3.65234 12.4727C4.05078 12.1094 4.57227 11.9277 5.2168 11.9277C5.7793 11.9277 6.24219 12.0859 6.60547 12.4023C6.98047 12.7188 7.41406 13.2168 7.90625 13.8965L11.0176 18.1504L14.041 13.8965C14.5449 13.1934 14.9785 12.6895 15.3418 12.3848C15.7168 12.0801 16.1797 11.9277 16.7305 11.9277C17.3633 11.9277 17.8848 12.1094 18.2949 12.4727C18.7168 12.8242 18.9277 13.252 18.9277 13.7559C18.9277 14.1191 18.8398 14.4707 18.6641 14.8105C18.5 15.1387 18.2422 15.5312 17.8906 15.9883L14.041 21.1738L18.3828 27.3965C19.0625 28.3691 19.4023 29.1016 19.4023 29.5938C19.4023 30.0977 19.1914 30.5312 18.7695 30.8945C18.3477 31.2578 17.8262 31.4395 17.2051 31.4395C16.6543 31.4395 16.1855 31.2812 15.7988 30.9648C15.4238 30.6484 14.9902 30.1445 14.498 29.4531Z" fill="#F8F8F8"/>
<path d="M21.8125 11.1562H25.8906C26.2969 11.1562 26.6068 11.2396 26.8203 11.4062C27.0339 11.5729 27.1406 11.7995 27.1406 12.0859C27.1406 12.3411 27.0547 12.5573 26.8828 12.7344C26.7161 12.9115 26.4609 13 26.1172 13H20.3672C19.9766 13 19.6719 12.8932 19.4531 12.6797C19.2344 12.4609 19.125 12.2057 19.125 11.9141C19.125 11.7266 19.1953 11.4792 19.3359 11.1719C19.4766 10.8594 19.6302 10.6146 19.7969 10.4375C20.4896 9.71875 21.1146 9.10417 21.6719 8.59375C22.2292 8.07812 22.6276 7.73958 22.8672 7.57812C23.2943 7.27604 23.6484 6.97396 23.9297 6.67188C24.2161 6.36458 24.4323 6.05208 24.5781 5.73438C24.7292 5.41146 24.8047 5.09635 24.8047 4.78906C24.8047 4.45573 24.724 4.15885 24.5625 3.89844C24.4062 3.63281 24.1901 3.42708 23.9141 3.28125C23.6432 3.13542 23.3464 3.0625 23.0234 3.0625C22.3411 3.0625 21.8047 3.36198 21.4141 3.96094C21.362 4.03906 21.2734 4.2526 21.1484 4.60156C21.0286 4.95052 20.8906 5.21875 20.7344 5.40625C20.5833 5.59375 20.3594 5.6875 20.0625 5.6875C19.8021 5.6875 19.5859 5.60156 19.4141 5.42969C19.2422 5.25781 19.1562 5.02344 19.1562 4.72656C19.1562 4.36719 19.237 3.99219 19.3984 3.60156C19.5599 3.21094 19.7995 2.85677 20.1172 2.53906C20.4401 2.22135 20.8464 1.96615 21.3359 1.77344C21.8307 1.57552 22.4089 1.47656 23.0703 1.47656C23.8672 1.47656 24.5469 1.60156 25.1094 1.85156C25.474 2.01823 25.7943 2.2474 26.0703 2.53906C26.3464 2.83073 26.5599 3.16927 26.7109 3.55469C26.8672 3.9349 26.9453 4.33073 26.9453 4.74219C26.9453 5.38802 26.7839 5.97656 26.4609 6.50781C26.1432 7.03385 25.8177 7.44792 25.4844 7.75C25.151 8.04688 24.5911 8.51562 23.8047 9.15625C23.0234 9.79688 22.487 10.2943 22.1953 10.6484C22.0703 10.7891 21.9427 10.9583 21.8125 11.1562Z" fill="#F8F8F8"/>
</svg>
